SplineFontDB: 3.0
FontName: Shabnam-Medium
FullName: Shabnam Medium
FamilyName: Shabnam Medium
Weight: Medium
Copyright: Copyright (c) 2003 by Bitstream, Inc. All Rights Reserved.\nDejaVu changes are in public domain\nChanges by Saber Rastikerdar are in public domain.\nNon-Arabic(Latin) glyphs and data in extended version are imported from Roboto font under the Apache License, Version 2.0.
Version: 5.0.1
ItalicAngle: 0
UnderlinePosition: -500
UnderlineWidth: 100
Ascent: 1638
Descent: 410
InvalidEm: 0
LayerCount: 2
Layer: 0 0 "Back" 1
Layer: 1 0 "Fore" 0
PreferredKerning: 4
XUID: [1021 502 1027637223 8875632]
UniqueID: 4251886
UseUniqueID: 1
FSType: 0
OS2Version: 1
OS2_WeightWidthSlopeOnly: 0
OS2_UseTypoMetrics: 1
CreationTime: 1431850356
ModificationTime: 1573911180
PfmFamily: 33
TTFWeight: 500
TTFWidth: 5
LineGap: 0
VLineGap: 0
Panose: 2 11 6 3 3 8 4 2 2 4
OS2TypoAscent: 1900
OS2TypoAOffset: 0
OS2TypoDescent: -900
OS2TypoDOffset: 0
OS2TypoLinegap: 0
OS2WinAscent: 1900
OS2WinAOffset: 0
OS2WinDescent: 900
OS2WinDOffset: 0
HheadAscent: 1900
HheadAOffset: 0
HheadDescent: -900
HheadDOffset: 0
OS2SubXSize: 1331
OS2SubYSize: 1433
OS2SubXOff: 0
OS2SubYOff: 286
OS2SupXSize: 1331
OS2SupYSize: 1433
OS2SupXOff: 0
OS2SupYOff: 983
OS2StrikeYSize: 102
OS2StrikeYPos: 530
OS2CapHeight: 1638
OS2XHeight: 1082
OS2Vendor: '    '
OS2CodePages: 00000041.20080000
OS2UnicodeRanges: 80002003.80000000.00000008.00000000
Lookup: 1 9 0 "Single Substitution 1" { "Single Substitution 1 subtable"  } []
Lookup: 1 9 0 "'fina' Terminal Forms in Arabic lookup 9" { "'fina' Terminal Forms in Arabic lookup 9 subtable"  } ['fina' ('DFLT' <'dflt' > 'arab' <'FAR ' 'KUR ' 'URD ' 'dflt' > ) ]
Lookup: 1 9 0 "'medi' Medial Forms in Arabic lookup 11" { "'medi' Medial Forms in Arabic lookup 11 subtable"  } ['medi' ('DFLT' <'dflt' > 'arab' <'FAR ' 'KUR ' 'URD ' 'dflt' > ) ]

StartChar: exclam
Encoding: 33 33 1
GlifName: exclam
Width: 632
VWidth: 2762
GlyphClass: 2
Flags: HW
LayerCount: 2
Fore
SplineSet
163 154 m 0
 163 237.948242188 231.70703125 308 316 308 c 0
 400.291992188 308 469 237.947265625 469 154 c 0
 469 69.908203125 400.091796875 1 316 1 c 0
 231.28515625 1 163 66.9619140625 163 154 c 0
200.439453125 1326 m 5
 435.538085938 1326 l 5
 419.475585938 448 l 1
 217.544921875 448 l 1
 200.439453125 1326 l 5
EndSplineSet
EndChar

StartChar: period
Encoding: 46 46 2
GlifName: period
Width: 632
VWidth: 2762
GlyphClass: 2
Flags: HW
LayerCount: 2
Fore
SplineSet
163 154 m 0
 163 237.948242188 231.70703125 308 316 308 c 0
 400.291992188 308 469 237.947265625 469 154 c 0
 469 69.908203125 400.091796875 1 316 1 c 0
 231.28515625 1 163 66.9619140625 163 154 c 0
EndSplineSet
EndChar

StartChar: colon
Encoding: 58 58 3
GlifName: colon
Width: 632
VWidth: 2762
GlyphClass: 2
Flags: HW
LayerCount: 2
Fore
SplineSet
163 774 m 0
 163 857.948242188 231.70703125 928 316 928 c 0
 400.291992188 928 469 857.947265625 469 774 c 0
 469 689.908203125 400.091796875 621 316 621 c 0
 231.28515625 621 163 686.961914062 163 774 c 0
163 154 m 0
 163 237.948242188 231.70703125 308 316 308 c 0
 400.291992188 308 469 237.947265625 469 154 c 0
 469 69.908203125 400.091796875 1 316 1 c 0
 231.28515625 1 163 66.9619140625 163 154 c 0
EndSplineSet
EndChar

StartChar: uni060C
Encoding: 1548 1548 5
GlifName: afii57388
Width: 669
VWidth: 2770
GlyphClass: 2
Flags: HW
LayerCount: 2
Fore
SplineSet
516.495117188 586.239257812 m 2
 422.862304688 500.631835938 367.754882812 430.478515625 361.536132812 324.34765625 c 1
 459.206054688 317.704101562 496 258.889648438 496 171 c 0
 496 75.357421875 440.151367188 9 341 9 c 0
 216.85546875 9 163 90.154296875 163 203 c 0
 163 403.563476562 267.528320312 560.31640625 416.758789062 675.81640625 c 2
 429.18359375 685.432617188 l 1
 441.467773438 675.637695312 l 1
 515.467773438 616.637695312 l 1
 533.77734375 602.040039062 l 1
 516.495117188 586.239257812 l 2
EndSplineSet
EndChar

StartChar: uni0615
Encoding: 1557 1557 6
GlifName: uni0615
Width: -29
VWidth: 2712
GlyphClass: 4
Flags: HW
AnchorPoint: "Anchor-10" 658.199 1622.46 mark 0
AnchorPoint: "Anchor-9" 658.199 1622.46 mark 0
AnchorPoint: "Anchor-1" 672.366 2445.86 basemark 0
AnchorPoint: "Anchor-1" 658.199 1622.46 mark 0
LayerCount: 2
Fore
SplineSet
910 1918 m 0
 910 1966.53600396 886.57882768 1990 837 1990 c 0
 768.649123993 1990 668.441160853 1920.58159396 547.877829757 1791 c 1
 678 1791 l 2
 788.285797385 1791 910 1826.27058392 910 1918 c 0
542.01822688 1899.8670436 m 1
 648.895512773 2018.54900907 748.425313895 2081 841 2081 c 0
 942.403359304 2081 994 2029.38050856 994 1927 c 0
 994 1781.66186828 883.471884756 1709 668 1709 c 2
 357 1709 l 1
 352 1709 l 1
 352 1714 l 1
 352 1786 l 1
 352 1791 l 1
 357 1791 l 1
 460 1791 l 1
 460 2317.97363281 l 1
 460 2323.03893847 l 1
 465.064879216 2322.97321186 l 1
 538.060972966 2322.02594624 l 1
 543.007676732 2321.96175318 l 1
 542.996080013 2317.01464651 l 1
 542.01822688 1899.8670436 l 1
EndSplineSet
EndChar

StartChar: uni061B
Encoding: 1563 1563 7
GlifName: uni061B_
Width: 669
VWidth: 2770
GlyphClass: 2
Flags: HW
LayerCount: 2
Fore
SplineSet
191 154 m 0
 191 237.948242188 259.70703125 308 344 308 c 0
 428.291992188 308 497 237.947265625 497 154 c 0
 497 69.908203125 428.091796875 1 344 1 c 0
 259.28515625 1 191 66.9619140625 191 154 c 0
516.4609375 1025.20800781 m 6
 422.599609375 939.793945312 367.733398438 869.8359375 361.53125 763.33984375 c 5
 459.048828125 756.609375 496 697.512695312 496 610 c 4
 496 514.357421875 440.151367188 448 341 448 c 4
 216.85546875 448 163 529.154296875 163 642 c 4
 163 842.563476562 267.528320312 999.31640625 416.758789062 1114.81640625 c 6
 429.18359375 1124.43261719 l 5
 441.467773438 1114.63769531 l 5
 515.467773438 1055.63769531 l 5
 533.8203125 1041.00585938 l 5
 516.4609375 1025.20800781 l 6
EndSplineSet
EndChar

StartChar: uni061F
Encoding: 1567 1567 8
GlifName: uni061F_
Width: 924
VWidth: 2762
GlyphClass: 2
Flags: HW
LayerCount: 2
Fore
SplineSet
372 154 m 0
 372 237.948242188 440.70703125 308 525 308 c 0
 609.291992188 308 678 237.947265625 678 154 c 0
 678 69.908203125 609.091796875 1 525 1 c 0
 440.28515625 1 372 66.9619140625 372 154 c 0
79 961 m 4
 79 1186.93457031 274.067382812 1336 469 1336 c 4
 731.227539062 1336 844.97265625 1190.09960938 846 921.076171875 c 6
 846.076171875 911 l 5
 826 911 l 5
 670 911 l 5
 650.145507812 911 l 5
 650.000976562 920.854492188 l 6
 649.043945312 1051.8671875 605.80078125 1116 480 1116 c 4
 368.248046875 1116 300 1058.13183594 300 952 c 4
 300 791.224609375 636.665039062 803.55078125 638 470.080078125 c 2
 638.080078125 450 l 1
 618 450 l 1
 433 450 l 1
 413.09765625 450 l 1
 413 469.90234375 l 2
 411.485351562 779.774414062 79 650.68359375 79 961 c 4
EndSplineSet
EndChar

StartChar: uni0621
Encoding: 1569 1569 9
GlifName: uni0621
Width: 807
VWidth: 2551
GlyphClass: 2
Flags: HW
AnchorPoint: "Anchor-7" 437 -44 basechar 0
AnchorPoint: "Anchor-10" 394 1090 basechar 0
LayerCount: 2
Fore
SplineSet
445 811 m 0
 510.625976562 811 575.43359375 796.134765625 623.333007812 774.181640625 c 2
 635 768.833984375 l 1
 635 756 l 1
 635 609 l 1
 635 581.075195312 l 1
 608.561523438 590.064453125 l 2
 561.083007812 606.20703125 502.705078125 615 454 615 c 0
 349.848632812 615 295 568.2578125 295 494 c 0
 295 390.296875 406.391601562 358 498 358 c 0
 542.616210938 358 595.641601562 372.708007812 657.833984375 404.776367188 c 2
 679.262695312 415.825195312 l 1
 686.163085938 392.723632812 l 1
 732.163085938 238.723632812 l 1
 737.477539062 220.934570312 l 1
 720.130859375 214.314453125 l 1
 175.130859375 6.314453125 l 1
 157.122070312 -0.55859375 l 1
 149.58984375 17.185546875 l 1
 90.58984375 156.185546875 l 1
 82.4560546875 175.34765625 l 1
 101.928710938 182.708007812 l 1
 260.276367188 242.5625 l 1
 155.947265625 287.88671875 94 370.212890625 94 504 c 0
 94 683.170898438 234.470703125 811 445 811 c 0
EndSplineSet
EndChar

StartChar: uni0627
Encoding: 1575 1575 15
GlifName: uni0627
Width: 459
VWidth: 2551
GlyphClass: 2
Flags: HW
AnchorPoint: "Anchor-10" 225 1463 basechar 0
AnchorPoint: "Anchor-7" 228 -191 basechar 0
LayerCount: 2
Fore
SplineSet
150 1334 m 1
 316 1334 l 1
 336 1334 l 1
 336 1314 l 1
 336 21 l 1
 336 1 l 1
 316 1 l 1
 150 1 l 1
 130 1 l 1
 130 21 l 1
 130 1314 l 1
 130 1334 l 1
 150 1334 l 1
EndSplineSet
Substitution2: "'fina' Terminal Forms in Arabic lookup 9 subtable" uniFE8E
EndChar

StartChar: uni062D
Encoding: 1581 1581 21
GlifName: uni062D_
Width: 1314
VWidth: 2551
GlyphClass: 2
Flags: HW
AnchorPoint: "Anchor-10" 657.5 1052.5 basechar 0
AnchorPoint: "Anchor-7" 743.334 -855.653 basechar 0
LayerCount: 2
Fore
SplineSet
867.912109375 491.822265625 m 1
 785.364257812 537.473632812 l 2
 701.221679688 583.458984375 626.524414062 607 554 607 c 0
 471.465820312 607 413.844726562 579.087890625 336.434570312 518.334960938 c 2
 265.520507812 461.404296875 l 1
 250.709960938 449.513671875 l 1
 238.071289062 463.69140625 l 1
 123.071289062 592.69140625 l 1
 109.463867188 607.955078125 l 1
 125.025390625 621.220703125 l 1
 186.073242188 673.260742188 l 2
 307.8046875 775.717773438 415.916992188 830 548 830 c 0
 646.052734375 830 744.631835938 800.6875 843.9921875 743.325195312 c 2
 1032.97070312 634.336914062 l 2
 1098.85644531 596.549804688 1167.27929688 573.114257812 1217.13964844 562.567382812 c 2
 1233 559.211914062 l 1
 1233 543 l 1
 1233 361 l 1
 1233 343.489257812 l 1
 1215.64355469 341.17578125 l 2
 830.47265625 289.819335938 292 177.297851562 292 -172 c 0
 292 -380.266601562 449.723632812 -479 802 -479 c 2
 1214 -479 l 1
 1234 -479 l 1
 1234 -499 l 1
 1234 -675 l 1
 1234 -695 l 1
 1214 -695 l 1
 790 -695 l 2
 373.297851562 -695 80 -536.1875 80 -175 c 0
 80 176.045898438 354.96875 394.989257812 867.912109375 491.822265625 c 1
EndSplineSet
Substitution2: "'fina' Terminal Forms in Arabic lookup 9 subtable" uniFEA2
Substitution2: "'medi' Medial Forms in Arabic lookup 11 subtable" uniFEA4
Substitution2: "'init' Initial Forms in Arabic lookup 13 subtable" uniFEA3
EndChar

StartChar: uni062F
Encoding: 1583 1583 23
GlifName: uni062F_
Width: 1004
VWidth: 2551
GlyphClass: 2
Flags: HW
AnchorPoint: "Anchor-10" 448 1186 basechar 0
AnchorPoint: "Anchor-7" 424 -205 basechar 0
LayerCount: 2
Fore
SplineSet
464 0 m 2
 100 0 l 1
 80 0 l 1
 80 20 l 1
 80 200 l 1
 80 220 l 1
 100 220 l 1
 465 220 l 2
 655.182617188 220 709 266.955078125 709 320 c 0
 709 362.142578125 676.91796875 424.01171875 616.904296875 492.879882812 c 2
 336.887695312 815.899414062 l 1
 325.3828125 829.171875 l 1
 337.057617188 842.293945312 l 1
 458.057617188 978.293945312 l 1
 473.288085938 995.412109375 l 1
 488.19140625 978.008789062 l 1
 786.204101562 629.994140625 l 2
 875.309570312 525.525390625 924 414.50390625 924 314 c 0
 924 132.891601562 768.854492188 0 464 0 c 2
EndSplineSet
Substitution2: "'fina' Terminal Forms in Arabic lookup 9 subtable" uniFEAA
EndChar

StartChar: uni0631
Encoding: 1585 1585 25
GlifName: uni0631
Width: 756
VWidth: 2551
GlyphClass: 2
Flags: HW
AnchorPoint: "Anchor-7" 297 -599 basechar 0
AnchorPoint: "Anchor-10" 511 973 basechar 0
LayerCount: 2
Fore
SplineSet
84 -254 m 2
 334.701171875 -254 462 -135.004882812 462 91 c 2
 462 625 l 1
 462 644.885742188 l 1
 481.884765625 645 l 1
 655.884765625 646 l 1
 676 646.115234375 l 1
 676 626 l 1
 676 91 l 2
 676 -259.477539062 467.978515625 -464.928710938 86.2197265625 -467.999023438 c 2
 14.27734375 -468.998046875 l 1
 -6 -469.279296875 l 1
 -6 -449 l 1
 -6 -274 l 1
 -6 -254 l 1
 14 -254 l 1
 84 -254 l 2
EndSplineSet
PairPos2: "'kern' Horizontal Kerning lookup 15-1" uniFEE7 dx=-178 dy=0 dh=-178 dv=0 dx=0 dy=0 dh=0 dv=0
PairPos2: "'kern' Horizontal Kerning lookup 15-2" uni0698 dx=-40 dy=0 dh=-40 dv=0 dx=0 dy=0 dh=0 dv=0
PairPos2: "'kern' Horizontal Kerning lookup 15-2" uni0648 dx=-30 dy=0 dh=-30 dv=0 dx=0 dy=0 dh=0 dv=0
PairPos2: "'kern' Horizontal Kerning lookup 15-2" uni0624 dx=-30 dy=0 dh=-30 dv=0 dx=0 dy=0 dh=0 dv=0
PairPos2: "'kern' Horizontal Kerning lookup 15-2" uni0632 dx=-30 dy=0 dh=-30 dv=0 dx=0 dy=0 dh=0 dv=0
PairPos2: "'kern' Horizontal Kerning lookup 15-2" uni0631 dx=-30 dy=0 dh=-30 dv=0 dx=0 dy=0 dh=0 dv=0
PairPos2: "'kern' Horizontal Kerning lookup 15-2" uniFB90 dx=-180 dy=0 dh=-180 dv=0 dx=0 dy=0 dh=0 dv=0
PairPos2: "'kern' Horizontal Kerning lookup 15-2" uniFB8E dx=-180 dy=0 dh=-180 dv=0 dx=0 dy=0 dh=0 dv=0
PairPos2: "'kern' Horizontal Kerning lookup 15-2" uni06A9 dx=-180 dy=0 dh=-180 dv=0 dx=0 dy=0 dh=0 dv=0
PairPos2: "'kern' Horizontal Kerning lookup 15-2" uniFEEB dx=-178 dy=0 dh=-178 dv=0 dx=0 dy=0 dh=0 dv=0
PairPos2: "'kern' Horizontal Kerning lookup 15-2" uni0647 dx=-178 dy=0 dh=-178 dv=0 dx=0 dy=0 dh=0 dv=0
PairPos2: "'kern' Horizontal Kerning lookup 15-2" uniFEE3 dx=-178 dy=0 dh=-178 dv=0 dx=0 dy=0 dh=0 dv=0
PairPos2: "'kern' Horizontal Kerning lookup 15-2" uni0645 dx=-178 dy=0 dh=-178 dv=0 dx=0 dy=0 dh=0 dv=0
PairPos2: "'kern' Horizontal Kerning lookup 15-2" uniFEFB dx=-143 dy=0 dh=-143 dv=0 dx=0 dy=0 dh=0 dv=0
PairPos2: "'kern' Horizontal Kerning lookup 15-2" uniFEDF dx=-143 dy=0 dh=-143 dv=0 dx=0 dy=0 dh=0 dv=0
PairPos2: "'kern' Horizontal Kerning lookup 15-2" uni0644 dx=-60 dy=0 dh=-60 dv=0 dx=0 dy=0 dh=0 dv=0
PairPos2: "'kern' Horizontal Kerning lookup 15-2" uniFEDB dx=-180 dy=0 dh=-180 dv=0 dx=0 dy=0 dh=0 dv=0
PairPos2: "'kern' Horizontal Kerning lookup 15-2" uni0643 dx=-143 dy=0 dh=-143 dv=0 dx=0 dy=0 dh=0 dv=0
PairPos2: "'kern' Horizontal Kerning lookup 15-2" uniFED7 dx=-178 dy=0 dh=-178 dv=0 dx=0 dy=0 dh=0 dv=0
PairPos2: "'kern' Horizontal Kerning lookup 15-2" uniFED3 dx=-178 dy=0 dh=-178 dv=0 dx=0 dy=0 dh=0 dv=0
PairPos2: "'kern' Horizontal Kerning lookup 15-2" uni0641 dx=-178 dy=0 dh=-178 dv=0 dx=0 dy=0 dh=0 dv=0
PairPos2: "'kern' Horizontal Kerning lookup 15-2" uniFECF dx=-178 dy=0 dh=-178 dv=0 dx=0 dy=0 dh=0 dv=0
PairPos2: "'kern' Horizontal Kerning lookup 15-2" uniFECB dx=-178 dy=0 dh=-178 dv=0 dx=0 dy=0 dh=0 dv=0
PairPos2: "'kern' Horizontal Kerning lookup 15-2" uniFEC7 dx=-178 dy=0 dh=-178 dv=0 dx=0 dy=0 dh=0 dv=0
PairPos2: "'kern' Horizontal Kerning lookup 15-2" uni0638 dx=-178 dy=0 dh=-178 dv=0 dx=0 dy=0 dh=0 dv=0
PairPos2: "'kern' Horizontal Kerning lookup 15-2" uniFEC3 dx=-178 dy=0 dh=-178 dv=0 dx=0 dy=0 dh=0 dv=0
PairPos2: "'kern' Horizontal Kerning lookup 15-2" uni0637 dx=-178 dy=0 dh=-178 dv=0 dx=0 dy=0 dh=0 dv=0
PairPos2: "'kern' Horizontal Kerning lookup 15-2" uniFEBF dx=-178 dy=0 dh=-178 dv=0 dx=0 dy=0 dh=0 dv=0
PairPos2: "'kern' Horizontal Kerning lookup 15-2" uni0636 dx=-178 dy=0 dh=-178 dv=0 dx=0 dy=0 dh=0 dv=0
PairPos2: "'kern' Horizontal Kerning lookup 15-2" uniFEBB dx=-178 dy=0 dh=-178 dv=0 dx=0 dy=0 dh=0 dv=0
PairPos2: "'kern' Horizontal Kerning lookup 15-2" uni0635 dx=-178 dy=0 dh=-178 dv=0 dx=0 dy=0 dh=0 dv=0
PairPos2: "'kern' Horizontal Kerning lookup 15-2" uniFEB7 dx=-178 dy=0 dh=-178 dv=0 dx=0 dy=0 dh=0 dv=0
PairPos2: "'kern' Horizontal Kerning lookup 15-2" uni0634 dx=-178 dy=0 dh=-178 dv=0 dx=0 dy=0 dh=0 dv=0
PairPos2: "'kern' Horizontal Kerning lookup 15-2" uniFEB3 dx=-178 dy=0 dh=-178 dv=0 dx=0 dy=0 dh=0 dv=0
PairPos2: "'kern' Horizontal Kerning lookup 15-2" uni0633 dx=-178 dy=0 dh=-178 dv=0 dx=0 dy=0 dh=0 dv=0
PairPos2: "'kern' Horizontal Kerning lookup 15-2" uni0630 dx=-178 dy=0 dh=-178 dv=0 dx=0 dy=0 dh=0 dv=0
PairPos2: "'kern' Horizontal Kerning lookup 15-2" uni062F dx=-178 dy=0 dh=-178 dv=0 dx=0 dy=0 dh=0 dv=0
PairPos2: "'kern' Horizontal Kerning lookup 15-2" uniFEA7 dx=-178 dy=0 dh=-178 dv=0 dx=0 dy=0 dh=0 dv=0
PairPos2: "'kern' Horizontal Kerning lookup 15-2" uniFEA3 dx=-178 dy=0 dh=-178 dv=0 dx=0 dy=0 dh=0 dv=0
PairPos2: "'kern' Horizontal Kerning lookup 15-2" uniFE9F dx=-178 dy=0 dh=-178 dv=0 dx=0 dy=0 dh=0 dv=0
PairPos2: "'kern' Horizontal Kerning lookup 15-2" uniFE9B dx=-178 dy=0 dh=-178 dv=0 dx=0 dy=0 dh=0 dv=0
PairPos2: "'kern' Horizontal Kerning lookup 15-2" uni062B dx=-178 dy=0 dh=-178 dv=0 dx=0 dy=0 dh=0 dv=0
PairPos2: "'kern' Horizontal Kerning lookup 15-2" uniFE97 dx=-178 dy=0 dh=-178 dv=0 dx=0 dy=0 dh=0 dv=0
PairPos2: "'kern' Horizontal Kerning lookup 15-2" uni062A dx=-178 dy=0 dh=-178 dv=0 dx=0 dy=0 dh=0 dv=0
PairPos2: "'kern' Horizontal Kerning lookup 15-2" uni0629 dx=-178 dy=0 dh=-178 dv=0 dx=0 dy=0 dh=0 dv=0
PairPos2: "'kern' Horizontal Kerning lookup 15-2" uni0628 dx=-178 dy=0 dh=-178 dv=0 dx=0 dy=0 dh=0 dv=0
PairPos2: "'kern' Horizontal Kerning lookup 15-2" uni0627 dx=-163 dy=0 dh=-163 dv=0 dx=0 dy=0 dh=0 dv=0
PairPos2: "'kern' Horizontal Kerning lookup 15-2" uni0623 dx=-163 dy=0 dh=-163 dv=0 dx=0 dy=0 dh=0 dv=0
PairPos2: "'kern' Horizontal Kerning lookup 15-2" uni0622 dx=-163 dy=0 dh=-163 dv=0 dx=0 dy=0 dh=0 dv=0
PairPos2: "'kern' Horizontal Kerning lookup 15-2" uni0621 dx=-178 dy=0 dh=-178 dv=0 dx=0 dy=0 dh=0 dv=0
PairPos2: "'kern' Horizontal Kerning lookup 15-2" uniFB94 dx=-180 dy=0 dh=-180 dv=0 dx=0 dy=0 dh=0 dv=0
PairPos2: "'kern' Horizontal Kerning lookup 15-2" uniFB92 dx=-180 dy=0 dh=-180 dv=0 dx=0 dy=0 dh=0 dv=0
PairPos2: "'kern' Horizontal Kerning lookup 15-2" uni06AF dx=-180 dy=0 dh=-180 dv=0 dx=0 dy=0 dh=0 dv=0
PairPos2: "'kern' Horizontal Kerning lookup 15-2" uni067E dx=-178 dy=0 dh=-178 dv=0 dx=0 dy=0 dh=0 dv=0
PairPos2: "'kern' Horizontal Kerning lookup 15-2" uni0640 dx=-178 dy=0 dh=-178 dv=0 dx=0 dy=0 dh=0 dv=0
PairPos2: "'kern' Horizontal Kerning lookup 15-2" uniFE8B dx=-178 dy=0 dh=-178 dv=0 dx=0 dy=0 dh=0 dv=0
PairPos2: "'kern' Horizontal Kerning lookup 15-2" uniFB7C dx=-120 dy=0 dh=-120 dv=0 dx=0 dy=0 dh=0 dv=0
PairPos2: "'kern' Horizontal Kerning lookup 15-2" uniFE91 dx=-60 dy=0 dh=-60 dv=0 dx=0 dy=0 dh=0 dv=0
PairPos2: "'kern' Horizontal Kerning lookup 15-5" uni06C0 dx=-178 dy=0 dh=-178 dv=0 dx=0 dy=0 dh=0 dv=0
Substitution2: "'fina' Terminal Forms in Arabic lookup 9 subtable" uniFEAE
EndChar

StartChar: uni0633
Encoding: 1587 1587 27
GlifName: uni0633
Width: 2479
VWidth: 2551
GlyphClass: 2
Flags: HW
AnchorPoint: "Anchor-7" 688 -648 basechar 0
AnchorPoint: "Anchor-10" 1775 1084 basechar 0
LayerCount: 2
Fore
SplineSet
1357 417 m 2
 1357 277.96875 1413.58105469 219.978515625 1527.19921875 219.978515625 c 0
 1632.22070312 219.978515625 1685 274.240234375 1685 393.038085938 c 2
 1686 654.076171875 l 1
 1686.07617188 674 l 1
 1706 674 l 1
 1876 674 l 1
 1895.92285156 674 l 1
 1896 654.077148438 l 1
 1897 395.116210938 l 2
 1897.94042969 273.786132812 1949.16015625 220.98828125 2058.27539062 220.98828125 c 0
 2142.28125 220.98828125 2184 269.262695312 2184 391 c 2
 2184 686 l 1
 2184 706 l 1
 2204 706 l 1
 2379 706 l 1
 2399 706 l 1
 2399 686 l 1
 2399 383 l 2
 2399 143.380859375 2276.04296875 0 2064 0 c 0
 1940.69335938 0 1856.12011719 42.1181640625 1796.421875 124.16796875 c 1
 1735.61914062 38.2451171875 1641.77148438 0 1520.88085938 0 c 0
 1454.35351562 0.7919921875 1391.80761719 17.8525390625 1344.84863281 55.78125 c 1
 1338.37402344 -280.88671875 1130.49609375 -449 744 -449 c 2
 693 -449 l 2
 290.815429688 -449 80 -257.631835938 80 121 c 2
 80 462 l 1
 80 482 l 1
 100 482 l 1
 274 482 l 1
 294 482 l 1
 294 462 l 1
 294 122 l 2
 294 -114.682617188 422.544921875 -230 693 -230 c 2
 744 -230 l 2
 1016.81347656 -230 1141 -130.366210938 1141 67 c 2
 1141 651 l 1
 1141 671 l 1
 1161 671 l 1
 1337 671 l 1
 1357 671 l 1
 1357 651 l 1
 1357 417 l 2
EndSplineSet
Substitution2: "'fina' Terminal Forms in Arabic lookup 9 subtable" uniFEB2
Substitution2: "'medi' Medial Forms in Arabic lookup 11 subtable" uniFEB4
Substitution2: "'init' Initial Forms in Arabic lookup 13 subtable" uniFEB3
EndChar

StartChar: uni0635
Encoding: 1589 1589 29
GlifName: uni0635
Width: 2505
VWidth: 2551
GlyphClass: 2
Flags: HW
AnchorPoint: "Anchor-10" 1977 1168 basechar 0
AnchorPoint: "Anchor-7" 688 -648 basechar 0
LayerCount: 2
Fore
SplineSet
1357 437 m 2
 1357 317.494140625 1391.9296875 262.983398438 1432.77832031 246.844726562 c 1
 1596.50390625 609.221679688 1757.76855469 815 2015 815 c 0
 2245.296875 815 2425 619.643554688 2425 387 c 0
 2425 130.294921875 2228.87109375 0 1958 0 c 2
 1618 0 l 2
 1491.64160156 0 1400.36132812 18.232421875 1344.89648438 58.55859375 c 1
 1339.55371094 -279.7578125 1131.65332031 -449 744 -449 c 2
 693 -449 l 2
 290.815429688 -449 80 -257.631835938 80 121 c 2
 80 462 l 1
 80 482 l 1
 100 482 l 1
 274 482 l 1
 294 482 l 1
 294 462 l 1
 294 122 l 2
 294 -114.682617188 422.544921875 -230 693 -230 c 2
 744 -230 l 2
 1016.81347656 -230 1141 -130.366210938 1141 67 c 2
 1141 651 l 1
 1141 671 l 1
 1161 671 l 1
 1337 671 l 1
 1357 671 l 1
 1357 651 l 1
 1357 437 l 2
2210 367 m 0
 2210 497.5859375 2114.93164062 592 2004 592 c 0
 1888.89355469 592 1767.90429688 474.129882812 1648.25 220 c 1
 1978 220 l 2
 2126.37207031 220 2210 261.973632812 2210 367 c 0
EndSplineSet
Substitution2: "'fina' Terminal Forms in Arabic lookup 9 subtable" uniFEBA
Substitution2: "'medi' Medial Forms in Arabic lookup 11 subtable" uniFEBC
Substitution2: "'init' Initial Forms in Arabic lookup 13 subtable" uniFEBB
EndChar

StartChar: uni0637
Encoding: 1591 1591 31
GlifName: uni0637
Width: 1358
VWidth: 2551
GlyphClass: 2
Flags: HW
AnchorPoint: "Anchor-7" 606 -218 basechar 0
AnchorPoint: "Anchor-10" 447 1463 basechar 0
LayerCount: 2
Fore
SplineSet
1063 367 m 0
 1063 497.122070312 967.956054688 592 857 592 c 0
 741.893554688 592 620.904296875 474.129882812 501.25 220 c 1
 831 220 l 2
 979.404296875 220 1063 262.176757812 1063 367 c 0
349 370.731445312 m 1
 349 1315 l 1
 349 1335 l 1
 369 1335 l 1
 535 1335 l 1
 555 1335 l 1
 555 1315 l 1
 555 669.233398438 l 1
 645.8359375 759.234375 748.99609375 815 868 815 c 0
 1097.93652344 815 1278 620.130859375 1278 387 c 0
 1278 130.125976562 1082.00976562 0 811 0 c 2
 100 0 l 1
 80 0 l 1
 80 20 l 1
 80 200 l 1
 80 220 l 1
 100 220 l 1
 275.703125 220 l 1
 299.779296875 276.447265625 325.379882812 323.71484375 349 370.731445312 c 1
EndSplineSet
Substitution2: "'fina' Terminal Forms in Arabic lookup 9 subtable" uniFEC2
Substitution2: "'medi' Medial Forms in Arabic lookup 11 subtable" uniFEC4
Substitution2: "'init' Initial Forms in Arabic lookup 13 subtable" uniFEC3
EndChar

StartChar: uni0639
Encoding: 1593 1593 33
GlifName: uni0639
Width: 1244
VWidth: 2551
GlyphClass: 2
Flags: HW
AnchorPoint: "Anchor-7" 743.334 -855.653 basechar 0
AnchorPoint: "Anchor-10" 739 1243 basechar 0
LayerCount: 2
Fore
SplineSet
80 -177 m 0
 80 64.1455078125 210.736328125 247.05078125 461.336914062 340.92578125 c 1
 384.922851562 417.192382812 346 509.489257812 346 603.086914062 c 0
 348.094726562 844.979492188 518.991210938 1008 761 1008 c 0
 890.869140625 1008 998.263671875 954.635742188 1082.54101562 850.588867188 c 2
 1090.97167969 840.180664062 l 1
 1084.55761719 828.422851562 l 1
 1012.55761719 696.422851562 l 1
 1000.0546875 673.500976562 l 1
 981.180664062 691.54296875 l 2
 916.3515625 753.51171875 844.703125 783 765 783 c 0
 653.081054688 783 561 720.21484375 561 605 c 0
 561 535.473632812 606.461914062 462.838867188 702.709960938 406.364257812 c 1
 775.485351562 412.120117188 853.740234375 414 939 414 c 2
 1107 414 l 1
 1127 414 l 1
 1127 394 l 1
 1127 213 l 1
 1127 193 l 1
 1107 193 l 1
 923 193 l 2
 490.826171875 193 292 56.69921875 292 -173 c 0
 292 -381.181640625 450.633789062 -479 802 -479 c 2
 1144 -479 l 1
 1164 -479 l 1
 1164 -499 l 1
 1164 -675 l 1
 1164 -695 l 1
 1144 -695 l 1
 790 -695 l 2
 378.471679688 -695 80 -535.939453125 80 -177 c 0
EndSplineSet
Substitution2: "'fina' Terminal Forms in Arabic lookup 9 subtable" uniFECA
Substitution2: "'medi' Medial Forms in Arabic lookup 11 subtable" uniFECC
Substitution2: "'init' Initial Forms in Arabic lookup 13 subtable" uniFECB
EndChar

StartChar: uni0640
Encoding: 1600 1600 35
GlifName: afii57440
Width: 250
VWidth: 2551
GlyphClass: 2
Flags: HW
AnchorPoint: "Anchor-10" 118 905 basechar 0
AnchorPoint: "Anchor-7" 130 -152 basechar 0
LayerCount: 2
Fore
SplineSet
255 220 m 6
 276.100585938 220 280 165.04296875 280 117 c 6
 280 106 l 6
 280 56.2763671875 276.471679688 -2.62952238022e-15 255 0 c 6
 -5 0 l 2
 -26.4716796875 0 -30 56.28515625 -30 106 c 2
 -30 117 l 2
 -30 165.1328125 -26.0908203125 220 -5 220 c 2
 255 220 l 6
EndSplineSet
EndChar

StartChar: uni0643
Encoding: 1603 1603 38
GlifName: uni0643
Width: 1889
VWidth: 2551
GlyphClass: 2
Flags: HW
AnchorPoint: "Anchor-7" 850 -213 basechar 0
AnchorPoint: "Anchor-10" 948.836 1295.23 basechar 0
LayerCount: 2
Fore
SplineSet
860.8359375 659.23046875 m 0
 956.59765625 659.23046875 1016.8359375 673.497070312 1016.8359375 718.23046875 c 0
 1016.8359375 778.427734375 751.7265625 723.521484375 751.7265625 948.451171875 c 0
 751.7265625 1086.0078125 861.693359375 1168.58300781 1039.765625 1168.58300781 c 0
 1068.65625 1168.58300781 1098.67773438 1166.38378906 1128.70996094 1162.02246094 c 2
 1145.8359375 1159.53613281 l 1
 1145.8359375 1142.23046875 l 1
 1145.8359375 1036.23046875 l 1
 1145.8359375 1014.05859375 l 1
 1123.78125 1016.3359375 l 2
 1100.75488281 1018.71484375 1076.28125 1020.28027344 1052.36425781 1020.28027344 c 0
 963.984375 1020.28027344 904.8359375 999.575195312 904.8359375 949.23046875 c 0
 904.8359375 855.708007812 1166.8359375 935.920898438 1166.8359375 737.23046875 c 0
 1166.8359375 554.512695312 1004.45507812 504 846 504 c 0
 800.698242188 504 747.170898438 510.693359375 700.0078125 517.431640625 c 2
 682.8359375 519.884765625 l 1
 682.8359375 537.23046875 l 1
 682.8359375 651.23046875 l 1
 682.8359375 673.487304688 l 1
 704.966796875 671.116210938 l 2
 755.93359375 665.65625 810.087890625 659.23046875 860.8359375 659.23046875 c 0
538 220 m 2
 1352 220 l 2
 1492.03417969 220 1559 296 1559 468 c 2
 1559 1313 l 5
 1559 1333 l 5
 1579 1333 l 5
 1746 1333 l 5
 1766 1333 l 5
 1766 1313 l 5
 1766 465 l 2
 1766 160 1624.08789062 0 1347 0 c 2
 535 0 l 2
 237.249023438 0 82 158.887695312 82 462 c 2
 82 673 l 1
 82 693 l 1
 102 693 l 1
 277 693 l 1
 297 693 l 1
 297 673 l 1
 297 463 l 2
 297 297.28515625 373.553710938 220 538 220 c 2
EndSplineSet
Substitution2: "'fina' Terminal Forms in Arabic lookup 9 subtable" uniFEDA
Substitution2: "'medi' Medial Forms in Arabic lookup 11 subtable" uniFEDC
Substitution2: "'init' Initial Forms in Arabic lookup 13 subtable" uniFEDB
EndChar

StartChar: uni0644
Encoding: 1604 1604 39
GlifName: uni0644
Width: 1334
VWidth: 2551
GlyphClass: 2
Flags: HW
AnchorPoint: "Anchor-10" 599 1014.1 basechar 0
AnchorPoint: "Anchor-7" 652 -636 basechar 0
LayerCount: 2
Fore
SplineSet
294 122 m 2
 294 -113.602539062 406.461914062 -226 641 -226 c 2
 694 -226 l 2
 904.649414062 -226 1005 -121 1005 106 c 2
 1005 1313 l 5
 1005 1333 l 5
 1025 1333 l 5
 1191 1333 l 5
 1211.015625 1333 l 5
 1211 1312.984375 l 5
 1210 102 l 2
 1210 -260 1032.1796875 -447 687 -447 c 2
 641 -447 l 2
 270.411132812 -447 80 -254.204101562 80 121 c 2
 80 462 l 1
 80 482 l 1
 100 482 l 1
 274 482 l 1
 294 482 l 1
 294 462 l 1
 294 122 l 2
EndSplineSet
Substitution2: "'fina' Terminal Forms in Arabic lookup 9 subtable" uniFEDE
Substitution2: "'medi' Medial Forms in Arabic lookup 11 subtable" uniFEE0
Substitution2: "'init' Initial Forms in Arabic lookup 13 subtable" uniFEDF
EndChar

StartChar: uni0645
Encoding: 1605 1605 40
GlifName: uni0645
Width: 1305
VWidth: 2551
GlyphClass: 2
Flags: HW
AnchorPoint: "Anchor-10" 725 1156 basechar 0
AnchorPoint: "Anchor-7" 775 -258 basechar 0
LayerCount: 2
Fore
SplineSet
840 569 m 2
 701 569 l 1
 701 388 l 2
 701 241.142578125 755.698242188 179 866 179 c 0
 962.671875 179 1012 239.421875 1012 388 c 2
 1012 430 l 2
 1012 523.671875 961.514648438 569 840 569 c 2
290 179 m 2
 290 -476 l 1
 290 -496 l 1
 270 -496 l 1
 100 -496 l 1
 79.9697265625 -496 l 1
 80 -475.969726562 l 1
 81 179.030273438 l 2
 81.603515625 574.314453125 246.58203125 781 580 781 c 2
 855 781 l 2
 1096.49121094 781 1225 661.341796875 1225 431 c 2
 1225 387 l 2
 1225 120.6328125 1103.41210938 -20 866 -20 c 0
 616.451171875 -20 488 119.764648438 488 386 c 2
 488 553.252929688 l 1
 341.942382812 542.002929688 290 402.05078125 290 179 c 2
EndSplineSet
Substitution2: "'init' Initial Forms in Arabic lookup 13 subtable" uniFEE3
Substitution2: "'medi' Medial Forms in Arabic lookup 11 subtable" uniFEE4
Substitution2: "'fina' Terminal Forms in Arabic lookup 9 subtable" uniFEE2
EndChar

StartChar: uni0647
Encoding: 1607 1607 42
GlifName: uni0647
Width: 924
VWidth: 2328
GlyphClass: 2
Flags: HW
AnchorPoint: "Anchor-10" 422 1160 basechar 0
AnchorPoint: "Anchor-7" 463 -182 basechar 0
LayerCount: 2
Fore
SplineSet
290 339 m 0
 290 252.418945312 347.169921875 217 468 217 c 0
 588.594726562 217 639 252.909179688 639 343 c 0
 639 390.5078125 586.135742188 485.4375 453.912109375 606.349609375 c 1
 329.795898438 459.431640625 290 390.825195312 290 339 c 0
467 0 m 0
 243.40625 0 83 107.092773438 83 338 c 0
 83 453.060546875 149.749023438 559.241210938 309.791992188 752.546875 c 1
 288.064453125 773.654296875 l 1
 274.731445312 786.606445312 l 1
 286.673828125 800.849609375 l 1
 395.673828125 930.849609375 l 1
 408.831054688 946.541992188 l 1
 424.208007812 933.018554688 l 2
 730.776367188 663.3984375 847 516.537109375 847 337 c 0
 847 107.290039062 689.756835938 0 467 0 c 0
EndSplineSet
Substitution2: "'fina' Terminal Forms in Arabic lookup 9 subtable" uniFEEA
Substitution2: "'medi' Medial Forms in Arabic lookup 11 subtable" uniFEEC
Substitution2: "'init' Initial Forms in Arabic lookup 13 subtable" uniFEEB
EndChar

StartChar: uni0648
Encoding: 1608 1608 43
GlifName: uni0648
Width: 880
VWidth: 2551
GlyphClass: 2
Flags: HW
AnchorPoint: "Anchor-7" 394 -599 basechar 0
AnchorPoint: "Anchor-10" 444 1074 basechar 0
LayerCount: 2
Fore
SplineSet
800 368 m 2
 800 20 l 2
 800 -278.776367188 587.95703125 -467 202 -467 c 2
 128 -467 l 1
 108 -467 l 1
 108 -447 l 1
 108 -271 l 1
 108 -251 l 1
 128 -251 l 1
 196 -251 l 2
 452.25 -251 579.4921875 -159.712890625 589.4140625 -0 c 1
 448 0 l 2
 206.990234375 0 79.9931640625 123.213867188 79.9931640625 359.083007812 c 0
 79.9931640625 588.26953125 202.486328125 765 447 765 c 0
 671.153320312 765 800 607.405273438 800 368 c 2
287 363 m 0
 287 265.93359375 334.942382812 220 447 220 c 2
 591 220 l 1
 591 369 l 2
 591 498.561523438 532.853515625 553 443 553 c 0
 339.065429688 553 287 486.565429688 287 363 c 0
EndSplineSet
Substitution2: "'fina' Terminal Forms in Arabic lookup 9 subtable" uniFEEE
EndChar

StartChar: uni0649
Encoding: 1609 1609 44
GlifName: uni0649
Width: 1442
VWidth: 2551
GlyphClass: 2
Flags: HW
AnchorPoint: "Anchor-10" 580 1035 basechar 0
AnchorPoint: "Anchor-7" 699 -648 basechar 0
LayerCount: 2
Fore
SplineSet
706 312 m 2
 706 620.609375 865.403320312 786 1110 786 c 2
 1341 786 l 1
 1360.88574219 786 l 1
 1361 766.114257812 l 1
 1362 591.114257812 l 1
 1362.11425781 571 l 1
 1342 571 l 1
 1105 571 l 2
 986.290039062 571 922.8984375 493.080078125 919 311.78515625 c 2
 919 269 l 1
 1059 269 l 2
 1252.54101562 269 1361 189.245117188 1361 29 c 2
 1361 0 l 2
 1361 -299.734375 1158.00878906 -447 775 -447 c 2
 691 -447 l 2
 290.701171875 -447 80 -254.541992188 80 125 c 2
 80 535 l 1
 80 555 l 1
 100 555 l 1
 272 555 l 1
 292 555 l 1
 292 535 l 1
 292 125 l 2
 292 -112.674804688 421.557617188 -228 691 -228 c 2
 775 -228 l 2
 1031.91210938 -228 1149 -154.205078125 1149 -18 c 2
 1149 -6 l 2
 1149 34.0068359375 1128.27734375 55 1059 55 c 2
 901 55 l 2
 778.579101562 55 706 119.384765625 706 240 c 2
 706 312 l 2
EndSplineSet
Substitution2: "'fina' Terminal Forms in Arabic lookup 9 subtable" uniFEF0
Substitution2: "'medi' Medial Forms in Arabic lookup 11 subtable" uniFBE9
Substitution2: "'init' Initial Forms in Arabic lookup 13 subtable" uniFBE8
EndChar

StartChar: uni064B
Encoding: 1611 1611 46
GlifName: uni064B_
Width: -26
VWidth: 2316
GlyphClass: 4
Flags: HW
AnchorPoint: "Anchor-10" 583.551 1123.65 mark 0
AnchorPoint: "Anchor-9" 583.551 1123.65 mark 0
AnchorPoint: "Anchor-1" 553.285 1596.25 basemark 0
AnchorPoint: "Anchor-1" 583.551 1123.65 mark 0
LayerCount: 2
Fore
SplineSet
322 1076 m 1
 322 1180 l 1
 322 1183.35768781 l 1
 325.108024057 1184.62822072 l 1
 780.108024057 1370.62822072 l 1
 787 1373.4455999 l 1
 787 1366 l 1
 787 1263 l 1
 787 1259.64913344 l 1
 783.900681343 1258.37534753 l 1
 328.900681343 1071.37534753 l 1
 322 1068.53924333 l 1
 322 1076 l 1
322 1288 m 1
 322 1392 l 1
 322 1395.35768781 l 1
 325.108024057 1396.62822072 l 1
 780.108024057 1582.62822072 l 1
 787 1585.4455999 l 1
 787 1578 l 1
 787 1475 l 1
 787 1471.64913344 l 1
 783.900681343 1470.37534753 l 1
 328.900681343 1283.37534753 l 1
 322 1280.53924333 l 1
 322 1288 l 1
EndSplineSet
EndChar

StartChar: uni064C
Encoding: 1612 1612 47
GlifName: uni064C_
Width: -26
VWidth: 2316
GlyphClass: 4
Flags: HW
AnchorPoint: "Anchor-10" 680.906 1278.67 mark 0
AnchorPoint: "Anchor-9" 680.906 1278.67 mark 0
AnchorPoint: "Anchor-1" 637.739 1852.46 basemark 0
AnchorPoint: "Anchor-1" 680.906 1278.67 mark 0
LayerCount: 2
Fore
SplineSet
484 1629 m 0
 484 1729.05477917 555.037558591 1796 652 1796 c 0
 749.502659876 1796 819 1729.8986434 819 1628 c 0
 819 1590.00544811 809.654142839 1549.63055867 794.039458443 1510.90744928 c 1
 809.500362015 1508.58747262 820.343431184 1508 830 1508 c 2
 835 1508 l 1
 835 1503 l 1
 835 1427 l 1
 835 1421.7437539 l 1
 829.750311915 1422.00623831 l 2
 810.458808408 1422.97081348 787.094110607 1424.96729285 757.039851403 1430.35472982 c 1
 692.95842221 1280.59489422 598.90224861 1205.99202128 471.867219481 1205.99202128 c 0
 335.669957454 1205.99202128 266.001786813 1302.84851761 263.000643303 1489.91979642 c 2
 262.932300473 1494.17983279 l 1
 267.127518383 1494.92328913 l 1
 346.127518383 1508.92328913 l 1
 351.877288374 1509.94223571 l 1
 351.998915284 1504.10414407 l 2
 354.994350337 1360.32326153 396.408814955 1294 473 1294 c 0
 543.270059814 1294 608.316117917 1345.35399614 665.704146525 1445.27662736 c 1
 561.8454573 1482.48115835 484 1532.16480731 484 1629 c 0
706.093184249 1528.95257809 m 1
 719.74741739 1561.61527371 731 1596.97561208 731 1627 c 0
 731 1672.4518915 696.767194245 1706 656 1706 c 0
 608.243151317 1706 574 1674.37111037 574 1625 c 0
 574 1573.73614198 641.805531364 1546.37134787 706.093184249 1528.95257809 c 1
EndSplineSet
EndChar

StartChar: uni064D
Encoding: 1613 1613 48
GlifName: uni064D_
Width: -26
VWidth: 2316
GlyphClass: 4
Flags: HW
AnchorPoint: "Anchor-7" 542.278 32.7109 mark 0
AnchorPoint: "Anchor-6" 542.278 32.7109 mark 0
AnchorPoint: "Anchor-0" 592.022 -407.025 basemark 0
AnchorPoint: "Anchor-0" 542.278 32.7109 mark 0
LayerCount: 2
Fore
SplineSet
327 -446 m 1
 327 -342 l 1
 327 -338.639524341 l 1
 330.111580725 -337.37032694 l 1
 786.111580725 -151.37032694 l 1
 793 -148.560576973 l 1
 793 -156 l 1
 793 -260 l 1
 793 -263.360475659 l 1
 789.888419275 -264.62967306 l 1
 333.888419275 -450.62967306 l 1
 327 -453.439423027 l 1
 327 -446 l 1
327 -234 m 1
 327 -130 l 1
 327 -126.639524341 l 1
 330.111580725 -125.37032694 l 1
 786.111580725 60.6296730601 l 1
 793 63.4394230274 l 1
 793 56 l 1
 793 -48 l 1
 793 -51.3604756589 l 1
 789.888419275 -52.6296730601 l 1
 333.888419275 -238.62967306 l 1
 327 -241.439423027 l 1
 327 -234 l 1
EndSplineSet
EndChar

StartChar: uni064E
Encoding: 1614 1614 49
GlifName: uni064E_
Width: -26
VWidth: 2316
GlyphClass: 4
Flags: HW
AnchorPoint: "Anchor-10" 545.66 1397.63 mark 0
AnchorPoint: "Anchor-9" 545.66 1397.63 mark 0
AnchorPoint: "Anchor-1" 541.396 1651.77 basemark 0
AnchorPoint: "Anchor-1" 545.66 1397.63 mark 0
LayerCount: 2
Fore
SplineSet
291 1349 m 1
 291 1453 l 1
 291 1456.36047566 l 1
 294.111580725 1457.62967306 l 1
 750.111580725 1643.62967306 l 1
 757 1646.43942303 l 1
 757 1639 l 1
 757 1535 l 1
 757 1531.63952434 l 1
 753.888419275 1530.37032694 l 1
 297.888419275 1344.37032694 l 1
 291 1341.56057697 l 1
 291 1349 l 1
EndSplineSet
EndChar

StartChar: uni064F
Encoding: 1615 1615 50
GlifName: uni064F_
Width: -26
VWidth: 2316
GlyphClass: 4
Flags: HW
AnchorPoint: "Anchor-10" 591.295 1359.37 mark 0
AnchorPoint: "Anchor-9" 591.295 1359.37 mark 0
AnchorPoint: "Anchor-1" 542.134 1865.4 basemark 0
AnchorPoint: "Anchor-1" 591.295 1359.37 mark 0
LayerCount: 2
Fore
SplineSet
723 1422 m 2
 695.829878765 1422 670.420276666 1423.92501871 645.268367852 1427.60036012 c 1
 578.426915432 1336.20544509 463.513263976 1286.96576554 300.273977998 1278.00751204 c 2
 295 1277.71808642 l 1
 295 1283 l 1
 295 1361 l 1
 295 1365.56291871 l 1
 299.543894354 1365.97915331 l 2
 424.391853008 1377.41560753 509.070346385 1407.47884692 555.876924189 1451.90288526 c 1
 465.126303739 1471.52934086 375 1532.09199709 375 1626 c 0
 375 1726.48549335 446.259447738 1793 543 1793 c 0
 640.040078137 1793 711 1725.9877249 711 1625 c 0
 711 1587.07224029 702.155983978 1548.08466552 687.024745786 1510.00762978 c 1
 698.717778369 1508.33340963 710.693343945 1507 723 1507 c 2
 728 1507 l 1
 728 1502 l 1
 728 1427 l 1
 728 1422 l 1
 723 1422 l 2
597.093184249 1525.95257809 m 1
 610.74741739 1558.61527371 622 1593.97561208 622 1624 c 0
 622 1669.90534222 588.646496609 1702 547 1702 c 0
 498.751670299 1702 465 1671.64435205 465 1622 c 0
 465 1570.73614198 532.805531364 1543.37134787 597.093184249 1525.95257809 c 1
EndSplineSet
EndChar

StartChar: uni0650
Encoding: 1616 1616 51
GlifName: uni0650
Width: -26
VWidth: 2316
GlyphClass: 4
Flags: HW
AnchorPoint: "Anchor-7" 571.144 -44.8242 mark 0
AnchorPoint: "Anchor-6" 571.144 -44.8242 mark 0
AnchorPoint: "Anchor-0" 619.091 -324.624 basemark 0
AnchorPoint: "Anchor-0" 571.144 -44.8242 mark 0
LayerCount: 2
Fore
SplineSet
338 -346 m 1
 338 -242 l 1
 338 -238.642312191 l 1
 341.108024057 -237.37177928 l 1
 796.108024057 -51.3717792801 l 1
 803 -48.5544001035 l 1
 803 -56 l 1
 803 -159 l 1
 803 -162.350866557 l 1
 799.900681343 -163.624652466 l 1
 344.900681343 -350.624652466 l 1
 338 -353.460756666 l 1
 338 -346 l 1
EndSplineSet
EndChar

StartChar: uni0651
Encoding: 1617 1617 52
GlifName: uni0651
Width: -26
VWidth: 2393
GlyphClass: 4
Flags: HW
AnchorPoint: "Anchor-10" 598.801 1453.71 mark 0
AnchorPoint: "Anchor-9" 598.801 1453.71 mark 0
AnchorPoint: "Anchor-1" 570.087 1839.1 basemark 0
AnchorPoint: "Anchor-1" 598.801 1453.71 mark 0
LayerCount: 2
Fore
SplineSet
612.996814272 1758.17845765 m 2
 614.000971112 1730.06206613 614.004587142 1703.12300544 615.986340519 1676.36933484 c 0
 620.470748312 1615.82594199 641.34635892 1579 681 1579 c 0
 724.05315381 1579 743 1608.63609599 743 1675 c 0
 743 1699.26222254 737.071760902 1739.14084547 726.104330813 1791.98391772 c 2
 725.039469487 1797.11461319 l 1
 730.214424756 1797.93790153 l 1
 818.214424756 1811.93790153 l 1
 822.562078279 1812.62957368 l 1
 823.798687035 1808.40449377 l 2
 835.924815406 1766.97355517 842 1725.50040198 842 1685 c 0
 842 1548.85809616 791.592387537 1478.03639671 690.02550954 1477 c 0
 649.245973611 1477 604.695041619 1495.30738022 582.56488639 1526.6395246 c 1
 557.730953684 1453.72703234 490.941331312 1433 432 1433 c 0
 334.970559993 1433 288.873817788 1497.58668621 288.873817788 1616.0779836 c 0
 288.873817788 1652.67729872 293.821732821 1686.68261077 302.176180894 1717.31558703 c 2
 303.365055224 1721.6747929 l 1
 307.821994937 1720.93196962 l 1
 385.821994937 1707.93196962 l 1
 391.043065303 1707.06179122 l 1
 389.87720501 1701.89869564 l 2
 382.974742541 1671.33064756 381 1643.7216864 381 1620 c 0
 381 1565.55463135 402.168629097 1541 444 1541 c 0
 523.873006789 1541 526.4140625 1595.95464715 526.4140625 1719.33203125 c 0
 526.4140625 1731.62153421 526.293296642 1744.45790791 526.001181741 1757.89129853 c 2
 525.890090813 1763 l 1
 531 1763 l 1
 608 1763 l 1
 612.824616331 1763 l 1
 612.996814272 1758.17845765 l 2
EndSplineSet
EndChar

StartChar: uni0652
Encoding: 1618 1618 53
GlifName: uni0652
Width: -26
VWidth: 2316
GlyphClass: 4
Flags: HW
AnchorPoint: "Anchor-10" 595.219 1271.43 mark 0
AnchorPoint: "Anchor-9" 595.219 1271.43 mark 0
AnchorPoint: "Anchor-1" 589.537 1682.66 basemark 0
AnchorPoint: "Anchor-1" 595.219 1271.43 mark 0
LayerCount: 2
Fore
SplineSet
416.07421875 1461.82128906 m 0
 416.07421875 1560.76030278 495.4657259 1640.14941406 594.40234375 1640.14941406 c 0
 693.340478986 1640.14941406 772.731445312 1560.75744395 772.731445312 1461.82128906 c 0
 772.731445312 1412.15549173 755.391067338 1369.7242964 720.94565585 1335.27888491 c 0
 686.499675663 1300.83357319 644.068129378 1283.49316406 594.40234375 1283.49316406 c 0
 495.464346166 1283.49316406 416.07421875 1362.88561349 416.07421875 1461.82128906 c 0
507.66674466 1461.02251011 m 0
 506.830625134 1412.03350703 547.292995837 1372.0173805 596.749705634 1371.92870269 c 0
 646.017190111 1372.01820637 686.038451151 1411.88213804 685.851526284 1461.0224719 c 0
 686.03863592 1510.15475388 645.993639186 1549.97096421 596.773157877 1550.11427846 c 0
 547.270007803 1549.97201754 506.832033054 1509.87272171 507.66674466 1461.02251011 c 0
EndSplineSet
EndChar

StartChar: uni0653
Encoding: 1619 1619 54
GlifName: uni0653
Width: 11
VWidth: 2551
GlyphClass: 4
Flags: HW
AnchorPoint: "Anchor-10" 402 1465 mark 0
AnchorPoint: "Anchor-9" 402 1465 mark 0
AnchorPoint: "Anchor-1" 387 1771 basemark 0
AnchorPoint: "Anchor-1" 402 1465 mark 0
LayerCount: 2
Fore
SplineSet
323 1709 m 2
 711 1709 l 1
 713 1541 l 1
 333 1541 l 2
 250.619140625 1541 214 1486 183 1414 c 1
 52 1489 l 1
 90 1618 188.157226562 1709 323 1709 c 2
EndSplineSet
EndChar

StartChar: uni0657
Encoding: 1623 1623 57
GlifName: uni0657
Width: -26
VWidth: 2316
GlyphClass: 4
Flags: HW
AnchorPoint: "Anchor-10" 513.285 1400.55 mark 0
AnchorPoint: "Anchor-9" 513.285 1400.55 mark 0
AnchorPoint: "Anchor-1" 537.285 2069.85 basemark 0
AnchorPoint: "Anchor-1" 513.285 1400.55 mark 0
LayerCount: 2
Fore
SplineSet
265.124960956 1809.99843823 m 2
 304.358787057 1809.01759258 347.71461718 1805.98683215 392.881103662 1801.25204894 c 1
 493.905044067 1943.85577726 623.584882781 2022.88925735 784.533296457 2037.97817113 c 2
 790 2038.49067459 l 1
 790 2033 l 1
 790 1955 l 1
 790 1950.74734112 l 1
 785.802468983 1950.06481576 l 2
 666.206216065 1930.61827057 569.005038794 1873.8586189 494.458981628 1780.66761205 c 1
 579.790004948 1754.05741094 663 1698.09475739 663 1599 c 0
 663 1505.19842535 595.891184632 1433 501 1433 c 0
 406.244339287 1433 327 1499.62395605 327 1603 c 0
 327 1631.44559175 334.060675802 1671.50397997 348.331140834 1717.47660332 c 1
 323.088518456 1719.3127248 296.195980529 1721 265 1721 c 2
 260 1721 l 1
 260 1726 l 1
 260 1805 l 1
 260 1810.12656226 l 1
 265.124960956 1809.99843823 l 2
501 1521 m 0
 546.12704559 1521 572 1551.08074682 572 1597 c 0
 572 1652.77624618 504.399179975 1686.98009098 439.977070212 1703.1286155 c 1
 422.748015945 1661.05605279 415 1630.36185962 415 1605 c 0
 415 1555.75238902 453.794716518 1521 501 1521 c 0
EndSplineSet
EndChar

StartChar: uni065A
Encoding: 1626 1626 58
GlifName: uni065A_
Width: 1135
VWidth: 2316
GlyphClass: 4
Flags: HW
AnchorPoint: "Anchor-10" 573.285 1350.55 mark 0
AnchorPoint: "Anchor-9" 573.285 1350.55 mark 0
AnchorPoint: "Anchor-1" 571.012 1862.38 basemark 0
AnchorPoint: "Anchor-1" 573.285 1350.55 mark 0
LayerCount: 2
Fore
SplineSet
497.704368254 1441.44118232 m 1
 304.704368254 1765.44118232 l 1
 300.201739206 1773 l 1
 309 1773 l 1
 433 1773 l 1
 435.871851662 1773 l 1
 437.318894504 1770.51935513 l 1
 573.01535582 1537.89685001 l 1
 709.688944267 1770.53274524 l 1
 711.138456437 1773 l 1
 714 1773 l 1
 838 1773 l 1
 846.821605559 1773 l 1
 842.289799352 1765.43141644 l 1
 648.289799352 1441.43141644 l 1
 646.833951238 1439 l 1
 644 1439 l 1
 502 1439 l 1
 499.158529329 1439 l 1
 497.704368254 1441.44118232 l 1
EndSplineSet
EndChar

StartChar: uni0660
Encoding: 1632 1632 59
GlifName: afii57392
Width: 890
VWidth: 2551
GlyphClass: 2
Flags: HW
LayerCount: 2
Fore
SplineSet
299.799804688 493 m 4
 299.799804688 412.604492188 364.936523438 346.700195312 445 346.700195312 c 4
 525.064453125 346.700195312 590.200195312 412.604492188 590.200195312 493 c 4
 590.200195312 573.395507812 525.063476562 639.299804688 445 639.299804688 c 4
 364.935546875 639.299804688 299.799804688 573.395507812 299.799804688 493 c 4
120 493 m 0
 120 672.063651747 265.936248877 818 445 818 c 0
 624.063651747 818 770 672.063751123 770 493 c 0
 770 313.936348253 624.063751123 168 445 168 c 0
 265.936348253 168 120 313.936248877 120 493 c 0
EndSplineSet
EndChar

StartChar: uni0661
Encoding: 1633 1633 60
GlifName: afii57393
Width: 682
VWidth: 2551
GlyphClass: 2
Flags: HW
LayerCount: 2
Fore
SplineSet
468 4 m 1
 297 4 l 1
 277 4 l 1
 277 24 l 1
 277 280 l 6
 277 644.517578125 236.134765625 961.624023438 155.837890625 1230.27246094 c 6
 150.151367188 1249.29785156 l 5
 169.134765625 1255.12109375 l 5
 332.134765625 1305.12109375 l 5
 351.374023438 1311.02246094 l 5
 357.15625 1291.74707031 l 6
 444.854492188 999.418945312 488 662.48828125 488 279 c 6
 488 24 l 1
 488 4 l 1
 468 4 l 1
EndSplineSet
EndChar

StartChar: uni0662
Encoding: 1634 1634 61
GlifName: afii57394
Width: 1096
VWidth: 2551
GlyphClass: 2
Flags: HW
LayerCount: 2
Fore
SplineSet
628.849609375 895.982421875 m 4
 795.294921875 895.982421875 796 992.345703125 796 1193 c 6
 796 1288 l 5
 796 1308 l 5
 816 1308 l 5
 981 1308 l 5
 1001 1308 l 5
 1001 1288 l 5
 1001 1197 l 6
 1001 878.127929688 937.073242188 677 626 677 c 4
 589.879882812 677 522.4296875 686.250976562 467.7578125 707.897460938 c 5
 480.263671875 603.806640625 488 449.767578125 488 280 c 6
 488 24 l 1
 488 4 l 1
 468 4 l 1
 297 4 l 1
 277 4 l 1
 277 24 l 1
 277 280 l 6
 277 643.51171875 236.140625 960.642578125 156.8125 1230.35644531 c 6
 151.224609375 1249.35546875 l 5
 170.16796875 1255.13085938 l 5
 334.16796875 1305.13085938 l 5
 354.811523438 1311.42480469 l 5
 359.518554688 1290.36230469 l 5
 435.643554688 949.75 l 5
 498.431640625 913.162109375 564.5859375 895.982421875 628.849609375 895.982421875 c 4
EndSplineSet
EndChar

StartChar: uni0663
Encoding: 1635 1635 62
GlifName: afii57395
Width: 1395
VWidth: 2551
GlyphClass: 2
Flags: HW
LayerCount: 2
Fore
SplineSet
576.796875 895.989257812 m 4
 641.03515625 895.989257812 688 962.732421875 688 1082.06054688 c 6
 689 1247.12109375 l 5
 689.12109375 1267 l 5
 709 1267 l 5
 872 1267 l 5
 892.12109375 1267 l 5
 892 1246.87890625 l 5
 891 1081.93945312 l 6
 891 965.744140625 918.810546875 896 998 896 c 4
 1053.54785156 896 1105 919.555664062 1105 1087 c 6
 1105 1286 l 5
 1105 1306 l 5
 1125 1306 l 5
 1287 1306 l 5
 1307 1306 l 5
 1307 1286 l 5
 1307 1087 l 6
 1307 825.124023438 1196.63574219 677 1008 677 c 4
 914.618164062 677 850.349609375 709.362304688 799.005859375 775.661132812 c 5
 747.642578125 709.352539062 685.638671875 677 598 677 c 4
 549.724609375 677 506.1171875 692.249023438 466.967773438 712.166015625 c 5
 482.143554688 586.294921875 488 447.891601562 488 280 c 6
 488 24 l 1
 488 4 l 1
 468 4 l 1
 297 4 l 1
 277 4 l 1
 277 24 l 1
 277 280 l 6
 277 643.51171875 236.140625 960.642578125 156.8125 1230.35644531 c 6
 151.224609375 1249.35546875 l 5
 170.16796875 1255.13085938 l 5
 334.16796875 1305.13085938 l 5
 354.811523438 1311.42480469 l 5
 359.518554688 1290.36230469 l 5
 435.946289062 948.397460938 l 5
 482.858398438 912.567382812 519.223632812 895.989257812 576.796875 895.989257812 c 4
EndSplineSet
EndChar

StartChar: uni0664
Encoding: 1636 1636 63
GlifName: afii57396
Width: 966
VWidth: 2551
GlyphClass: 2
Flags: HW
LayerCount: 2
Fore
SplineSet
122.000976562 343.168945312 m 0
 123.04296875 482.8046875 237.995117188 573.9375 443.5546875 677.516601562 c 1
 259.98828125 776.45703125 162 867.5859375 162 995 c 4
 162 1195.72460938 319.833007812 1293.98925781 603.96484375 1295 c 6
 741 1295 l 5
 760.771484375 1295 l 5
 760.999023438 1275.22949219 l 5
 762.999023438 1101.22949219 l 5
 763.229492188 1081.1484375 l 5
 743.147460938 1081.00097656 l 5
 607.135742188 1080 l 6
 459.061523438 1078.99316406 406 1042.22851562 406 989 c 4
 406 929.716796875 505.479492188 868.688476562 738.076171875 780.706054688 c 2
 751.849609375 775.49609375 l 1
 750.963867188 760.796875 l 1
 740.963867188 594.796875 l 1
 740.1484375 581.266601562 l 1
 727.279296875 577.01171875 l 2
 473.599609375 493.125 364.181640625 433.712890625 364.999023438 351.198242188 c 0
 365.819335938 268.329101562 437.45703125 220 620 220 c 2
 856 220 l 1
 876.114257812 220 l 1
 876 199.885742188 l 1
 875 24.8857421875 l 1
 874.885742188 5 l 1
 855 5 l 1
 620 5 l 2
 615.78125 5 611.588867188 5.0185546875 607.422851562 5.0546875 c 0
 292.451171875 7.8037109375 119.879882812 118.348632812 122.000976562 343.168945312 c 0
EndSplineSet
EndChar

StartChar: uni0665
Encoding: 1637 1637 64
GlifName: afii57397
Width: 1172
VWidth: 2551
GlyphClass: 2
Flags: HW
LayerCount: 2
Fore
SplineSet
575.135742188 935.20703125 m 5
 381.509765625 714.065429688 289 565.713867188 289 390 c 0
 289 284.037109375 379.711914062 224 599 224 c 0
 796.495117188 224 877 281.34375 877 380 c 0
 877 573.357421875 777.349609375 725.434570312 575.135742188 935.20703125 c 5
362.220703125 1126.88378906 m 5
 458.220703125 1274.88378906 l 5
 469.568359375 1292.37792969 l 5
 486.57421875 1280.31054688 l 6
 884.993164062 997.594726562 1090 736.060546875 1090 398 c 0
 1090 131.359375 920.124023438 -2.01953125 601.939453125 -1 c 0
 264.26171875 0.013671875 82 128.907226562 82 389 c 0
 82 618.448242188 192.959960938 814.268554688 408.196289062 1071.078125 c 5
 367.51171875 1099.62890625 l 5
 351.7265625 1110.70605469 l 5
 362.220703125 1126.88378906 l 5
EndSplineSet
EndChar

StartChar: uni0666
Encoding: 1638 1638 65
GlifName: afii57398
Width: 1176
VWidth: 2551
GlyphClass: 2
Flags: HW
LayerCount: 2
Fore
SplineSet
113.961914062 1306 m 5
 642.981445312 1307 l 6
 867.6796875 1307 984 1179.15527344 984 939 c 6
 984 24 l 1
 984 4 l 1
 964 4 l 1
 796 4 l 1
 776 4 l 1
 776 24 l 1
 776 935 l 6
 776 1030.62011719 734.620117188 1072 639 1072 c 6
 114 1072 l 5
 94 1072 l 5
 94 1092 l 5
 94 1286 l 5
 94 1305.96191406 l 5
 113.961914062 1306 l 5
EndSplineSet
EndChar

StartChar: uni0667
Encoding: 1639 1639 66
GlifName: afii57399
Width: 1201
VWidth: 2551
GlyphClass: 2
Flags: HW
LayerCount: 2
Fore
SplineSet
600.012695312 450.33203125 m 5
 667.79296875 717.123046875 778.143554688 994.01953125 921.861328125 1303.42578125 c 6
 930.665039062 1322.37792969 l 5
 949.212890625 1312.75195312 l 5
 1107.21289062 1230.75195312 l 5
 1125.125 1221.45507812 l 5
 1115.66796875 1203.62792969 l 6
 907.557617188 811.3046875 766.340820312 450.451171875 692.712890625 20.623046875 c 2
 689.865234375 4 l 1
 673 4 l 1
 528 4 l 1
 511.134765625 4 l 1
 508.287109375 20.623046875 l 2
 434.659179688 450.451171875 293.442382812 811.3046875 85.33203125 1203.62792969 c 6
 75.875 1221.45507812 l 5
 93.787109375 1230.75195312 l 5
 251.787109375 1312.75195312 l 5
 270.334960938 1322.37792969 l 5
 279.138671875 1303.42578125 l 6
 422.923828125 993.875 532.868164062 715.266601562 600.012695312 450.33203125 c 5
EndSplineSet
EndChar

StartChar: uni0668
Encoding: 1640 1640 67
GlifName: afii57400
Width: 1201
VWidth: 2551
GlyphClass: 2
Flags: HW
LayerCount: 2
Fore
SplineSet
600.987304688 849.66796875 m 1
 533.20703125 582.876953125 422.856445312 305.98046875 279.138671875 -3.42578125 c 2
 270.334960938 -22.3779296875 l 1
 251.787109375 -12.751953125 l 1
 93.787109375 69.248046875 l 1
 75.875 78.544921875 l 1
 85.33203125 96.3720703125 l 2
 293.442382812 488.6953125 434.659179688 849.548828125 508.287109375 1279.37695312 c 6
 511.134765625 1296 l 5
 528 1296 l 5
 673 1296 l 5
 689.865234375 1296 l 5
 692.712890625 1279.37695312 l 6
 766.340820312 849.548828125 907.557617188 488.6953125 1115.66796875 96.3720703125 c 2
 1125.125 78.544921875 l 1
 1107.21289062 69.248046875 l 1
 949.212890625 -12.751953125 l 1
 930.665039062 -22.3779296875 l 1
 921.861328125 -3.42578125 l 2
 778.076171875 306.125 668.131835938 584.733398438 600.987304688 849.66796875 c 1
EndSplineSet
EndChar

StartChar: uni0669
Encoding: 1641 1641 68
GlifName: afii57401
Width: 1080
GlyphClass: 2
Flags: HW
LayerCount: 2
Fore
SplineSet
110 907 m 4
 110 1107.8046875 270.026367188 1313 485 1313 c 4
 768.155273438 1313 842.36328125 1090.11328125 856.974609375 808.013671875 c 4
 872.314453125 499.211914062 883.3203125 276.75390625 889.993164062 20.5205078125 c 2
 890.52734375 0 l 1
 870 0 l 1
 702 0 l 1
 682.514648438 0 l 1
 682.006835938 19.478515625 l 2
 678.651367188 148.11328125 668.740234375 451.532226562 664.67578125 603.2265625 c 5
 624.015625 593.700195312 563.928710938 584 496 584 c 4
 250.55078125 584 110 680.051757812 110 907 c 4
484 1102 m 4
 391.975585938 1102 316 1004.79980469 316 907 c 4
 316 826.556640625 356.1796875 794 499 794 c 4
 539.715820312 794 611.641601562 805.303710938 649.009765625 814.147460938 c 5
 642.220703125 918.990234375 632.068359375 997.3515625 596.993164062 1048.72265625 c 4
 574.052734375 1082.32226562 541.15234375 1102 484 1102 c 4
EndSplineSet
EndChar

StartChar: uni066A
Encoding: 1642 1642 69
GlifName: afii57381
Width: 1033
VWidth: 4036
GlyphClass: 2
Flags: HW
LayerCount: 2
Fore
SplineSet
750 1330 m 5
 882 1270 l 5
 900 1262 l 5
 302 -21 l 5
 284 -13 l 5
 152 47 l 5
 133 55 l 5
 732 1338 l 5
 750 1330 l 5
617 193 m 4
 617 277 686 347 770 347 c 4
 854 347 923 277 923 193 c 4
 923 109 854 40 770 40 c 4
 685 40 617 106 617 193 c 4
110 1119 m 4
 110 1203 179 1273 263 1273 c 4
 347 1273 416 1203 416 1119 c 4
 416 1035 347 966 263 966 c 4
 178 966 110 1032 110 1119 c 4
EndSplineSet
EndChar

StartChar: uni066B
Encoding: 1643 1643 70
GlifName: uni066B_
Width: 772
VWidth: 2950
GlyphClass: 2
Flags: HW
LayerCount: 2
Fore
SplineSet
541.826171875 751.405273438 m 1
 668.826171875 697.405273438 l 1
 687.352539062 689.52734375 l 1
 679.353515625 671.052734375 l 1
 217.353515625 -395.947265625 l 1
 209.421875 -414.265625 l 1
 191.087890625 -406.368164062 l 1
 61.087890625 -350.368164062 l 1
 42.62890625 -342.416992188 l 1
 50.6708984375 -323.997070312 l 1
 515.670898438 741.002929688 l 1
 523.596679688 759.15625 l 1
 541.826171875 751.405273438 l 1
EndSplineSet
PairPos2: "'kern' Horizontal Kerning lookup 15-4" uni06F4 dx=-110 dy=0 dh=-110 dv=0 dx=0 dy=0 dh=0 dv=0
PairPos2: "'kern' Horizontal Kerning lookup 15-4" uni06F3 dx=-130 dy=0 dh=-130 dv=0 dx=0 dy=0 dh=0 dv=0
PairPos2: "'kern' Horizontal Kerning lookup 15-4" uni06F2 dx=-130 dy=0 dh=-130 dv=0 dx=0 dy=0 dh=0 dv=0
EndChar

StartChar: uni066C
Encoding: 1644 1644 71
GlifName: uni066C_
Width: 560
GlyphClass: 2
Flags: HW
LayerCount: 2
Fore
SplineSet
165.919616125 -315.939395391 m 1
 70.9196161248 -243.939395391 l 1
 55.3911820575 -232.17047694 l 1
 66.7505615464 -216.33999357 l 2
 127.564294402 -131.589696464 164.276796031 -34.7891152609 167 52.2767907262 c 2
 167 219 l 1
 167 239 l 1
 187 239 l 1
 358 239 l 1
 378 239 l 1
 378 219 l 1
 378 74 l 2
 378 -85.668430415 283.441091168 -240.02056739 190.619699852 -315.515900736 c 2
 178.435931315 -325.425444798 l 1
 165.919616125 -315.939395391 l 1
EndSplineSet
EndChar

StartChar: uni066D
Encoding: 1645 1645 72
GlifName: afii63167
Width: 1436
VWidth: 2948
GlyphClass: 2
Flags: HW
LayerCount: 2
Fore
SplineSet
151 1079 m 1
 568.517578125 1079 l 1
 698.999023438 1476.24121094 l 1
 718 1534.08984375 l 1
 737.000976562 1476.24121094 l 1
 867.482421875 1079 l 1
 1285 1079 l 1
 1346.08007812 1079 l 1
 1296.82910156 1042.87304688 l 1
 959.510742188 795.442382812 l 1
 1089.01074219 399.212890625 l 1
 1108.08300781 340.856445312 l 1
 1058.296875 376.78125 l 1
 718 622.336914062 l 1
 377.703125 376.78125 l 1
 327.916992188 340.856445312 l 1
 346.989257812 399.212890625 l 1
 476.489257812 795.442382812 l 1
 139.170898438 1042.87304688 l 1
 89.919921875 1079 l 1
 151 1079 l 1
EndSplineSet
EndChar

StartChar: uni066E
Encoding: 1646 1646 73
GlifName: uni066E_
Width: 1885
VWidth: 2551
GlyphClass: 2
Flags: HW
AnchorPoint: "Anchor-10" 878 1248 basechar 0
AnchorPoint: "Anchor-7" 918 -197 basechar 0
LayerCount: 2
Fore
SplineSet
535 220 m 2
 1360 220 l 2
 1515.93554688 220 1591 295.794921875 1591 463 c 2
 1591 660 l 1
 1591 680 l 1
 1611 680 l 1
 1785 680 l 1
 1805 680 l 1
 1805 660 l 1
 1805 466 l 2
 1805 160.305664062 1654.08007812 0 1357 0 c 2
 538 0 l 2
 240.502929688 0 80 157.557617188 80 462 c 2
 80 663 l 1
 80 683 l 1
 100 683 l 1
 274 683 l 1
 294 683 l 1
 294 663 l 1
 294 463 l 2
 294 297.357421875 371.536132812 220 535 220 c 2
EndSplineSet
Substitution2: "'fina' Terminal Forms in Arabic lookup 9 subtable" uni066E.fina
EndChar

StartChar: uni066F
Encoding: 1647 1647 74
GlifName: uni066F_
Width: 1431
VWidth: 2551
GlyphClass: 2
Flags: HW
AnchorPoint: "Anchor-10" 354 1180 basechar 0
AnchorPoint: "Anchor-7" 425 -695 basechar 0
LayerCount: 2
Fore
SplineSet
1351 368 m 2
 1351 -46 l 2
 1351 -354.444335938 1060.56054688 -449 744 -449 c 2
 693 -449 l 2
 290.815429688 -449 80 -257.631835938 80 121 c 2
 80 462 l 1
 80 482 l 1
 100 482 l 1
 274 482 l 1
 294 482 l 1
 294 462 l 1
 294 122 l 2
 294 -114.682617188 422.544921875 -230 693 -230 c 2
 744 -230 l 2
 998.974609375 -230 1140.98632812 -165.184570312 1141.00097656 -46 c 2
 1141 -0 l 1
 999 0 l 2
 757.990234375 0 630.993164062 123.213867188 630.993164062 359.083007812 c 0
 630.993164062 588.26953125 753.486328125 765 998 765 c 0
 1222.13671875 765 1351 607.754882812 1351 368 c 2
838 363 m 0
 838 265.93359375 885.942382812 220 998 220 c 2
 1142 220 l 1
 1142 369 l 2
 1142 498.561523438 1083.85351562 553 994 553 c 0
 890.065429688 553 838 486.565429688 838 363 c 0
EndSplineSet
Substitution2: "'fina' Terminal Forms in Arabic lookup 9 subtable" uni066F.fina
EndChar

StartChar: uni0670
Encoding: 1648 1648 75
GlifName: uni0670
Width: -29
VWidth: 2574
GlyphClass: 4
Flags: HW
AnchorPoint: "Anchor-10" 646.984 1500.61 mark 0
AnchorPoint: "Anchor-9" 646.984 1500.61 mark 0
AnchorPoint: "Anchor-1" 646.984 1957.18 basemark 0
AnchorPoint: "Anchor-1" 646.984 1500.61 mark 0
LayerCount: 2
Fore
SplineSet
598 1568 m 5
 598 1930 l 5
 598 1935 l 5
 603 1935 l 5
 691 1935 l 5
 696 1935 l 5
 696 1930 l 5
 696 1568 l 5
 696 1563 l 5
 691 1563 l 5
 603 1563 l 5
 598 1563 l 5
 598 1568 l 5
EndSplineSet
EndChar

StartChar: uni0674
Encoding: 1652 1652 76
GlifName: uni0674
Width: 551
VWidth: 2539
GlyphClass: 2
Flags: HW
LayerCount: 2
Fore
SplineSet
478.998506745 2172.1768504 m 1
 437.62568103 2197.01285538 394.640808474 2213 351 2213 c 0
 281.607701206 2213 236 2186.87535555 236 2120.00001562 c 0
 237.018251636 2079.28649219 259.502674417 2048.81364113 320.999795413 2025.99995763 c 0
 327.567635625 2023.81034153 333.371508304 2022.1953125 338.90234375 2022.1953125 c 0
 341.689318567 2022.1953125 341.527773158 2022.19875102 346.359186227 2023.26006191 c 0
 392.168865869 2032.04612374 439.673170836 2042.06393682 485 2051.00548459 c 1
 485 1925.00019181 l 1
 78 1827.00019182 l 1
 78 1949.99973449 l 1
 110.399871113 1957.34839054 142.799742226 1964.6970466 175.199613339 1972.04570265 c 1
 129.028745497 2013.07072556 111 2061.25749568 111 2133 c 0
 111 2263.95319071 209.093105425 2346 337 2346 c 0
 387.42818291 2346 435.116868906 2329.73635995 478.000353415 2303.01749067 c 1
 478.998506745 2172.1768504 l 1
EndSplineSet
EndChar

StartChar: uni06A1
Encoding: 1697 1697 80
GlifName: uni06A_1
Width: 1842
VWidth: 2551
GlyphClass: 2
Flags: HW
AnchorPoint: "Anchor-10" 502 1225 basechar 0
AnchorPoint: "Anchor-7" 519 -167 basechar 0
LayerCount: 2
Fore
SplineSet
1050 646 m 0
 1050 860.134765625 1179.23242188 1020 1410 1020 c 0
 1641.20703125 1020 1762 881.459960938 1762 674 c 2
 1762 355 l 2
 1762 118.443359375 1621.58203125 0 1306 0 c 2
 536 0 l 2
 238.418945312 0 80 157.684570312 80 462 c 2
 80 663 l 1
 80 683 l 1
 100 683 l 1
 274 683 l 1
 294 683 l 1
 294 663 l 1
 294 463 l 2
 294 297.141601562 369.677734375 220 533 220 c 2
 1309 220 l 2
 1527.46972656 220 1559 263.96875 1559 348 c 2
 1559 351.107421875 l 1
 1512.34179688 347 1469.07226562 344 1426 344 c 0
 1183.81347656 344 1050 434.875 1050 646 c 0
1412 809 m 0
 1306.73632812 809 1255 756.313476562 1255 657 c 0
 1255 574.294921875 1300.01074219 558 1434 558 c 0
 1476.33300781 558 1519.44042969 561.291015625 1559 565.940429688 c 1
 1559 677 l 2
 1559 758.317382812 1513.97167969 809 1412 809 c 0
EndSplineSet
Substitution2: "'init' Initial Forms in Arabic lookup 13 subtable" uni06A1.init
Substitution2: "'medi' Medial Forms in Arabic lookup 11 subtable" uni06A1.medi
Substitution2: "'fina' Terminal Forms in Arabic lookup 9 subtable" uni06A1.fina
EndChar

StartChar: uni06A9
Encoding: 1705 1705 81
GlifName: uni06A_9
Width: 1855
VWidth: 2551
GlyphClass: 2
Flags: HW
AnchorPoint: "Anchor-10" 1065 1349 basechar 0
AnchorPoint: "Anchor-7" 848 -213 basechar 0
LayerCount: 2
Fore
SplineSet
1234.81738281 1005.32324219 m 5
 1523.14355469 671.064453125 l 2
 1638 538 1695.02148438 438.916992188 1695.02148438 333.68359375 c 0
 1695.02148438 117.740234375 1540.32617188 0 1257 0 c 2
 532 0 l 2
 234.249023438 0 80 157.942382812 80 462 c 2
 80 663 l 1
 80 683 l 1
 100 683 l 1
 275 683 l 1
 295 683 l 1
 295 663 l 1
 295 463 l 2
 295 297.25 371.607421875 220 535 220 c 2
 1259 220 l 2
 1424.99609375 220 1489 263.798828125 1489 334 c 0
 1489 359.879882812 1456.84082031 418.951171875 1381.91992188 503.861328125 c 2
 1067.83789062 868.95703125 l 2
 1033.66894531 908.67578125 1007 956.743164062 1007 1018.125 c 0
 1008.10449219 1106.46582031 1056 1168 1139.84765625 1195.03027344 c 6
 1771.04296875 1401.10546875 l 5
 1771.04296875 1373.52539062 l 5
 1771.04296875 1194.52539062 l 5
 1771.04296875 1180.01367188 l 5
 1234.81738281 1005.32324219 l 5
EndSplineSet
Substitution2: "'init' Initial Forms in Arabic lookup 13 subtable" uniFB90
Substitution2: "'medi' Medial Forms in Arabic lookup 11 subtable" uniFB91
Substitution2: "'fina' Terminal Forms in Arabic lookup 9 subtable" uniFB8F
EndChar

StartChar: uni06BA
Encoding: 1722 1722 83
GlifName: afii57514
Width: 1437
VWidth: 2551
GlyphClass: 2
Flags: HW
AnchorPoint: "Anchor-10" 597 943 basechar 0
AnchorPoint: "Anchor-7" 701 -688 basechar 0
LayerCount: 2
Fore
SplineSet
1357 651 m 1
 1357 71.7607421875 l 1
 1348.7109375 -275.337890625 1133.97753906 -449 744 -449 c 2
 693 -449 l 2
 290.815429688 -449 80 -257.631835938 80 121 c 2
 80 462 l 1
 80 482 l 1
 100 482 l 1
 274 482 l 1
 294 482 l 1
 294 462 l 1
 294 122 l 2
 294 -114.682617188 422.544921875 -230 693 -230 c 2
 744 -230 l 2
 1016.81347656 -230 1141 -130.366210938 1141 67 c 2
 1141 651 l 1
 1141 671 l 1
 1161 671 l 1
 1337 671 l 1
 1357 671 l 1
 1357 651 l 1
EndSplineSet
Substitution2: "'fina' Terminal Forms in Arabic lookup 9 subtable" uniFB9F
EndChar

StartChar: uni06F4
Encoding: 1780 1780 90
GlifName: uni06F_4
Width: 1186
VWidth: 2551
GlyphClass: 2
Flags: HW
LayerCount: 2
Fore
SplineSet
684.678710938 837.509765625 m 0
 725.048828125 827.796875 794.3046875 818 857 818 c 0
 914.18359375 818 990.799804688 830.5 1072.30761719 864.461914062 c 2
 1099.48339844 875.78515625 l 1
 1099.99707031 846.348632812 l 1
 1102.99707031 674.348632812 l 1
 1103.23242188 660.87109375 l 1
 1090.82714844 655.595703125 l 2
 1000.65136719 617.245117188 907.265625 605 837 605 c 0
 700.9375 605 577.118164062 644.069335938 468.62109375 695.203125 c 1
 481.345703125 565.053710938 488 413.969726562 488 280 c 2
 488 24 l 1
 488 4 l 1
 468 4 l 1
 297 4 l 1
 277 4 l 1
 277 24 l 1
 277 280 l 2
 277 642.5078125 236.143554688 959.641601562 156.806640625 1230.37597656 c 2
 151.252929688 1249.32910156 l 1
 170.134765625 1255.12109375 l 1
 333.134765625 1305.12109375 l 1
 353.764648438 1311.44824219 l 1
 358.509765625 1290.3984375 l 1
 441.852539062 920.75 l 1
 451.977539062 914.13671875 474.520507812 906.418945312 488.444335938 900.467773438 c 5
 496.912109375 1157.29394531 612.2578125 1307 829 1307 c 0
 896.391601562 1307 970.163085938 1295.10742188 1053.59960938 1242.95996094 c 2
 1064.16113281 1236.359375 l 1
 1062.89648438 1223.96972656 l 1
 1047.89648438 1076.96972656 l 1
 1044.86132812 1047.22167969 l 1
 1018.52636719 1061.38574219 l 2
 956.4921875 1094.75195312 897.66796875 1105.00195312 850.442382812 1105.00195312 c 0
 738.041992188 1105.00195312 665.55859375 1037.51171875 665.55859375 859.219726562 c 0
 665.55859375 837.158203125 662.661132812 842.806640625 684.678710938 837.509765625 c 0
EndSplineSet
PairPos2: "'kern' Horizontal Kerning lookup 15-4" uni06F9 dx=-64 dy=0 dh=-64 dv=0 dx=0 dy=0 dh=0 dv=0
PairPos2: "'kern' Horizontal Kerning lookup 15-4" uni06F1 dx=-64 dy=0 dh=-64 dv=0 dx=0 dy=0 dh=0 dv=0
PairPos2: "'kern' Horizontal Kerning lookup 15-4" uni06F8 dx=-64 dy=0 dh=-64 dv=0 dx=0 dy=0 dh=0 dv=0
PairPos2: "'kern' Horizontal Kerning lookup 15-4" uni06F5 dx=-40 dy=0 dh=-40 dv=0 dx=0 dy=0 dh=0 dv=0
PairPos2: "'kern' Horizontal Kerning lookup 15-4" uni06F0 dx=-64 dy=0 dh=-64 dv=0 dx=0 dy=0 dh=0 dv=0
EndChar

StartChar: uni06F5
Encoding: 1781 1781 91
GlifName: uni06F_5
Width: 1218
VWidth: 2551
GlyphClass: 2
Flags: HW
LayerCount: 2
Fore
SplineSet
611.712890625 939.374023438 m 1
 381.715820312 660.836914062 284 501.200195312 284 344 c 0
 284 257.88671875 307.419921875 220 375 220 c 0
 469.729492188 220 512.092773438 267.354492188 520.025390625 425.999023438 c 6
 520.974609375 445 l 5
 540 445 l 5
 679 445 l 5
 698.123046875 445 l 5
 698.979492188 425.896484375 l 6
 705.92578125 271.110351562 748.715820312 220 842 220 c 0
 911.153320312 220 936.009765625 252.0234375 936.009765625 341.579101562 c 0
 936.009765625 516.002929688 821.208984375 676.560546875 611.712890625 939.374023438 c 1
609.924804688 139.293945312 m 1
 560.62890625 50.7314453125 491.728515625 0 378 0 c 0
 175.66796875 0 80 131.268554688 80 340 c 0
 80 588.041992188 257.592773438 825.282226562 469.489257812 1089.94140625 c 1
 430.459960938 1131.26757812 l 1
 417.96875 1144.49316406 l 1
 429.955078125 1158.17773438 l 1
 549.955078125 1295.17773438 l 1
 564.258789062 1311.5078125 l 1
 579.364257812 1295.91699219 l 2
 922.704101562 941.533203125 1138 616.552734375 1138 340 c 0
 1138 129.264648438 1043.17382812 0 839 0 c 0
 723.96484375 0 657.75 52.09375 609.924804688 139.293945312 c 1
EndSplineSet
PairPos2: "'kern' Horizontal Kerning lookup 15-4" uni06F8 dx=-38 dy=0 dh=-38 dv=0 dx=0 dy=0 dh=0 dv=0
PairPos2: "'kern' Horizontal Kerning lookup 15-4" uni06F7 dx=-100 dy=0 dh=-100 dv=0 dx=0 dy=0 dh=0 dv=0
PairPos2: "'kern' Horizontal Kerning lookup 15-4" uni06F6 dx=-42 dy=0 dh=-42 dv=0 dx=0 dy=0 dh=0 dv=0
PairPos2: "'kern' Horizontal Kerning lookup 15-4" uni06F4 dx=-42 dy=0 dh=-42 dv=0 dx=0 dy=0 dh=0 dv=0
PairPos2: "'kern' Horizontal Kerning lookup 15-4" uni06F3 dx=-100 dy=0 dh=-100 dv=0 dx=0 dy=0 dh=0 dv=0
PairPos2: "'kern' Horizontal Kerning lookup 15-4" uni06F2 dx=-100 dy=0 dh=-100 dv=0 dx=0 dy=0 dh=0 dv=0
EndChar

StartChar: uni06F6
Encoding: 1782 1782 92
GlifName: uni06F_6
Width: 1000
VWidth: 2551
GlyphClass: 2
Flags: HW
LayerCount: 2
Fore
SplineSet
540 1103 m 0
 412.62109375 1103 323.97265625 1033.84375 323.97265625 916.733398438 c 0
 323.97265625 801.161132812 418.09765625 744.5703125 576.974609375 744.5703125 c 0
 606.6484375 744.5703125 630.555664062 746.706054688 654.565429688 763.408203125 c 0
 707.033203125 800.037109375 760.858398438 857.075195312 827.147460938 917.080078125 c 1
 839.319335938 896.001953125 l 1
 921.319335938 754.001953125 l 1
 929.887695312 739.165039062 l 1
 762.833007812 604.67578125 605 383 365.654296875 -45.2353515625 c 1
 348.43359375 -37.072265625 l 1
 194.43359375 35.927734375 l 1
 175.509765625 44.8984375 l 1
 310 299 378 389 492.771484375 546.274414062 c 1
 251.758789062 575.032226562 115 706.775390625 115 907 c 0
 115 1140.23535156 274.598632812 1309 506 1309 c 0
 589.596679688 1309 663.120117188 1292.46582031 724.661132812 1258.51171875 c 2
 735.07421875 1252.76660156 l 1
 735 1240.875 l 1
 734 1080.875 l 1
 733.796875 1048.47851562 l 1
 704.926757812 1063.17675781 l 2
 652.61328125 1089.80859375 597.909179688 1103 540 1103 c 0
EndSplineSet
PairPos2: "'kern' Horizontal Kerning lookup 15-4" uni06F9 dx=-30 dy=0 dh=-30 dv=0 dx=0 dy=0 dh=0 dv=0
PairPos2: "'kern' Horizontal Kerning lookup 15-4" uni06F8 dx=-40 dy=0 dh=-40 dv=0 dx=0 dy=0 dh=0 dv=0
PairPos2: "'kern' Horizontal Kerning lookup 15-4" uni06F7 dx=-40 dy=0 dh=-40 dv=0 dx=0 dy=0 dh=0 dv=0
EndChar

StartChar: uniFB8F
Encoding: 64399 64399 107
GlifName: uniF_B_8F_
Width: 2020
VWidth: 2551
GlyphClass: 2
Flags: HW
AnchorPoint: "Anchor-7" 848 -213 basechar 0
AnchorPoint: "Anchor-10" 1065 1349 basechar 0
LayerCount: 2
Fore
SplineSet
2027 0 m 6
 2012 0 l 2
 1878 0 1761.90039062 63.1953125 1665.34375 183.697265625 c 1
 1605.30371094 57.9150390625 1467.23144531 0 1257 0 c 2
 532 0 l 2
 234.249023438 0 80 157.942382812 80 462 c 2
 80 663 l 1
 80 683 l 1
 100 683 l 1
 275 683 l 1
 295 683 l 1
 295 663 l 1
 295 463 l 2
 295 298.200195312 370.698242188 220 535 220 c 2
 1259 220 l 2
 1424.99609375 220 1489 263.798828125 1489 334 c 0
 1489 359.879882812 1456.84082031 418.951171875 1381.91992188 503.861328125 c 2
 1067.83886719 868.95703125 l 2
 1032.35644531 910.201171875 1007 956.975585938 1007 1018.125 c 0
 1008.10449219 1106.46582031 1056 1168 1139.84765625 1195.03027344 c 2
 1771.04296875 1401.10546875 l 1
 1771.04296875 1373.52539062 l 1
 1771.04296875 1194.52539062 l 1
 1771.04296875 1180.01367188 l 1
 1234.81738281 1005.32324219 l 1
 1786.125 368.0859375 l 2
 1874 267 1948 220 2003.15136719 220 c 2
 2027 220 l 6
 2048 220 2052 165.04296875 2052 117 c 6
 2052 106 l 6
 2052 56.2763671875 2048 0 2027 0 c 6
EndSplineSet
EndChar

StartChar: uniFB9F
Encoding: 64415 64415 115
GlifName: uniF_B_9F_
Width: 1590
VWidth: 2551
GlyphClass: 2
Flags: HW
AnchorPoint: "Anchor-7" 691 -648 basechar 0
AnchorPoint: "Anchor-10" 644 826 basechar 0
LayerCount: 2
Fore
SplineSet
1595 0 m 6
 1557 0 l 2
 1469 0 1392.84667969 16.662109375 1343.72949219 50.091796875 c 1
 1335.25 -282.76953125 1132.16992188 -449 744 -449 c 2
 693 -449 l 2
 290.815429688 -449 80 -257.631835938 80 121 c 2
 80 462 l 1
 80 482 l 1
 100 482 l 1
 274 482 l 1
 294 482 l 1
 294 462 l 1
 294 122 l 2
 294 -114.682617188 422.544921875 -230 693 -230 c 2
 744 -230 l 2
 1016.81347656 -230 1141 -130.366210938 1141 67 c 2
 1141 651 l 1
 1141 671 l 1
 1161 671 l 1
 1337 671 l 1
 1357 671 l 1
 1357 651 l 1
 1357 417 l 2
 1357 273.423828125 1420 220 1566 220 c 2
 1595 220 l 6
 1616 220 1620 165.04296875 1620 117 c 6
 1620 106 l 6
 1620 56.2763671875 1616 0 1595 0 c 6
EndSplineSet
EndChar

StartChar: uniFBE8
Encoding: 64488 64488 118
GlifName: uniF_B_E_8
Width: 757
VWidth: 2551
GlyphClass: 2
Flags: HW
AnchorPoint: "Anchor-10" 450 1238 basechar 0
AnchorPoint: "Anchor-7" 467 -124 basechar 0
LayerCount: 2
Fore
SplineSet
-6 220 m 6
 278 220 l 2
 406 220 460 255.522460938 460 393 c 2
 460 687 l 1
 460 707 l 1
 480 707 l 1
 654 707 l 1
 674 707 l 1
 674 687 l 1
 674 392 l 2
 674 134.465820312 538 0 279 0 c 2
 -6 0 l 6
 -27 0 -31 56.28515625 -31 106 c 6
 -31 117 l 6
 -31 165.1328125 -27 220 -6 220 c 6
EndSplineSet
EndChar

StartChar: uniFBE9
Encoding: 64489 64489 119
GlifName: uniF_B_E_9
Width: 877
VWidth: 2551
GlyphClass: 2
Flags: HW
AnchorPoint: "Anchor-10" 370 1144 basechar 0
AnchorPoint: "Anchor-7" 409 -129 basechar 0
LayerCount: 2
Fore
SplineSet
882 0 m 6
 861 0 l 2
 721 0 632.887695312 40.8154296875 571.732421875 122.59765625 c 1
 499.366210938 39.6572265625 395 0 236 0 c 2
 -5 0 l 2
 -26 0 -30 56.28515625 -30 106 c 2
 -30 117 l 2
 -30 165.1328125 -26 220 -5 220 c 2
 241 220 l 2
 405 220 462 276.892578125 462 395 c 2
 462 653 l 1
 462 673 l 1
 482 673 l 1
 653 673 l 1
 673 673 l 1
 673 653 l 1
 673 395 l 2
 673 274 717 220 860 220 c 2
 882 220 l 6
 903 220 907 165.04296875 907 117 c 6
 907 106 l 6
 907 56.2763671875 903 0 882 0 c 6
EndSplineSet
EndChar

StartChar: uniFE73
Encoding: 65139 65139 127
GlifName: uniF_E_73
Width: 660
VWidth: 2950
GlyphClass: 2
Flags: HW
AnchorPoint: "Anchor-10" 331 1030 basechar 0
AnchorPoint: "Anchor-7" 405 -188 basechar 0
LayerCount: 2
Fore
SplineSet
306 444 m 2
 306 295.8046875 399.017578125 222 606 222 c 2
 673 222 l 1
 675 222 l 1
 695 222 l 1
 695 202 l 1
 695 200 l 1
 695 22 l 1
 695 20 l 1
 695 0 l 1
 675 0 l 1
 673 0 l 1
 596 0 l 2
 256.83203125 0 80 152.3359375 80 447 c 2
 80 467 l 1
 80 469 l 1
 80 489 l 1
 100 489 l 1
 102 489 l 1
 284 489 l 1
 286 489 l 1
 306 489 l 1
 306 469 l 1
 306 467 l 1
 306 444 l 2
EndSplineSet
EndChar

StartChar: uniFE8E
Encoding: 65166 65166 153
GlifName: uniF_E_8E_
Width: 516
VWidth: 2551
GlyphClass: 2
Flags: HW
AnchorPoint: "Anchor-10" 224 1463 basechar 0
AnchorPoint: "Anchor-7" 262 -227 basechar 0
LayerCount: 2
Fore
SplineSet
522 0 m 6
 476 0 l 2
 246 0 130 138 130 395 c 2
 130 1313 l 1
 130 1333 l 1
 150 1333 l 1
 316 1333 l 1
 336 1333 l 1
 336 1313 l 1
 336 394 l 2
 336 272 384 220 479 220 c 2
 522 220 l 6
 543 220 547 165.04296875 547 117 c 6
 547 106 l 6
 547 56.2763671875 543 0 522 0 c 6
EndSplineSet
EndChar

StartChar: uniFEA2
Encoding: 65186 65186 173
GlifName: uniF_E_A_2
Width: 1359
VWidth: 2551
GlyphClass: 2
Flags: HW
AnchorPoint: "Anchor-7" 743.334 -855.653 basechar 0
AnchorPoint: "Anchor-10" 657.5 1052.5 basechar 0
LayerCount: 2
Fore
SplineSet
1364 0 m 6
 1312 0 l 2
 1106 0 930.586914062 93.919921875 907.958984375 288.680664062 c 1
 588.380859375 218.166015625 292 88.0986328125 292 -172 c 0
 292 -380.266601562 449.723632812 -479 802 -479 c 2
 1214 -479 l 1
 1234 -479 l 1
 1234 -499 l 1
 1234 -675 l 1
 1234 -695 l 1
 1214 -695 l 1
 790 -695 l 2
 373.297851562 -695 80 -536.1875 80 -175 c 0
 80 175.827148438 355.732421875 396.388671875 867.701171875 491.939453125 c 1
 785.364257812 537.473632812 l 2
 701.221679688 583.458984375 626.524414062 607 554 607 c 0
 471.465820312 607 413.844726562 579.087890625 336.434570312 518.334960938 c 2
 265.520507812 461.404296875 l 1
 250.709960938 449.513671875 l 1
 238.071289062 463.69140625 l 1
 123.071289062 592.69140625 l 1
 109.463867188 607.955078125 l 1
 125.025390625 621.220703125 l 1
 186.073242188 673.260742188 l 2
 307.8046875 775.717773438 415.916992188 830 548 830 c 0
 646.052734375 830 744.631835938 800.6875 843.9921875 743.325195312 c 2
 1032.97070312 634.336914062 l 2
 1098.85644531 596.549804688 1167.27929688 573.114257812 1217.13964844 562.567382812 c 2
 1233 559.211914062 l 1
 1233 543 l 1
 1233 361 l 1
 1233 343.489257812 l 1
 1215.64355469 341.17578125 l 2
 1177.17480469 336.045898438 1135.72167969 330.124023438 1094.98828125 323.666015625 c 1
 1103.71191406 255.46484375 1167 220 1313 220 c 2
 1364 220 l 6
 1385 220 1389 165.04296875 1389 117 c 6
 1389 106 l 6
 1389 56.2763671875 1385 0 1364 0 c 6
EndSplineSet
EndChar

StartChar: uniFEA3
Encoding: 65187 65187 174
GlifName: uniF_E_A_3
Width: 1302
VWidth: 2551
GlyphClass: 2
Flags: HW
AnchorPoint: "Anchor-10" 559 1123 basechar 0
AnchorPoint: "Anchor-7" 425 -222 basechar 0
LayerCount: 2
Fore
SplineSet
-5 220 m 6
 320 220 l 2
 456 220 581.295898438 250.048828125 697.145507812 309.936523438 c 1
 953.041992188 430.41015625 l 1
 784.295898438 523.51171875 l 2
 700.161132812 570.470703125 625.735351562 593 553 593 c 0
 470.465820312 593 412.844726562 565.087890625 335.434570312 504.334960938 c 2
 264.520507812 447.404296875 l 1
 249.709960938 435.513671875 l 1
 237.071289062 449.69140625 l 1
 122.071289062 578.69140625 l 1
 108.463867188 593.955078125 l 1
 124.025390625 607.220703125 l 1
 185.073242188 659.260742188 l 2
 306.8046875 761.717773438 414.916992188 816 547 816 c 0
 645.052734375 816 743.631835938 786.6875 842.9921875 729.325195312 c 2
 1031.97070312 620.336914062 l 2
 1097.85644531 582.549804688 1166.27929688 559.114257812 1216.13964844 548.567382812 c 2
 1232 545.211914062 l 1
 1232 529 l 1
 1232 349 l 1
 1232 336.692382812 l 1
 1221.01269531 331.145507812 l 1
 803.323242188 120.302734375 l 1
 655.326171875 39.3037109375 496 0 322 0 c 2
 -5 0 l 6
 -26 0 -30 56.28515625 -30 106 c 6
 -30 117 l 6
 -30 165.1328125 -26 220 -5 220 c 6
EndSplineSet
EndChar

StartChar: uniFEA4
Encoding: 65188 65188 175
GlifName: uniF_E_A_4
Width: 1349
VWidth: 2551
GlyphClass: 2
Flags: HW
AnchorPoint: "Anchor-7" 425 -222 basechar 0
AnchorPoint: "Anchor-10" 559 1123 basechar 0
LayerCount: 2
Fore
SplineSet
1354 0 m 6
 1236 0 l 2
 1066 0 972.016601562 75.654296875 906.129882812 175.595703125 c 1
 803.546875 120.42578125 l 2
 656.71484375 39.8720703125 496 0 322 0 c 2
 -5 0 l 2
 -26 0 -30 56.28515625 -30 106 c 2
 -30 117 l 2
 -30 165.1328125 -26 220 -5 220 c 2
 320 220 l 2
 456 220 581.259765625 249.05078125 697.084960938 309.908203125 c 1
 953.041992188 430.41015625 l 1
 784.295898438 523.51171875 l 2
 700.161132812 570.470703125 625.735351562 593 553 593 c 0
 470.465820312 593 412.844726562 565.087890625 335.434570312 504.334960938 c 2
 264.520507812 447.404296875 l 1
 249.709960938 435.513671875 l 1
 237.071289062 449.69140625 l 1
 122.071289062 578.69140625 l 1
 108.463867188 593.955078125 l 1
 124.025390625 607.220703125 l 1
 185.073242188 659.260742188 l 2
 306.8046875 761.717773438 414.916992188 816 547 816 c 0
 645.052734375 816 743.631835938 786.6875 842.9921875 729.325195312 c 2
 1031.97070312 620.336914062 l 2
 1097.85644531 582.549804688 1166.27929688 559.114257812 1216.13964844 548.567382812 c 2
 1232 545.211914062 l 1
 1232 529 l 1
 1232 349 l 1
 1232 336.365234375 l 1
 1220.58984375 330.938476562 l 1
 1081.875 264.96484375 l 1
 1123.40234375 233.153320312 1170 220 1233 220 c 2
 1354 220 l 6
 1375 220 1379 165.04296875 1379 117 c 6
 1379 106 l 6
 1379 56.2763671875 1375 0 1354 0 c 6
EndSplineSet
EndChar

StartChar: uniFEA9
Encoding: 65193 65193 180
GlifName: uniF_E_A_9
Width: 1004
VWidth: 2551
GlyphClass: 2
Flags: HW
AnchorPoint: "Anchor-7" 424 -225 basechar 0
AnchorPoint: "Anchor-10" 448 1166 basechar 0
LayerCount: 2
Fore
SplineSet
352 809 m 5
 473 945 l 1029
464 0 m 6
 100 0 l 5
 100 180 l 5
 465 180 l 1030
EndSplineSet
Refer: 23 1583 N 1 0 0 1 0 0 2
EndChar

StartChar: uniFEAA
Encoding: 65194 65194 181
GlifName: uniF_E_A_A_
Width: 1204
VWidth: 2551
GlyphClass: 2
Flags: HW
AnchorPoint: "Anchor-7" 424 -205 basechar 0
AnchorPoint: "Anchor-10" 448 1186 basechar 0
LayerCount: 2
Fore
SplineSet
1209 0 m 6
 1193 0 l 2
 1055 0 979.62890625 70.6318359375 882.908203125 167.194335938 c 1
 817.763671875 64.0068359375 677.807617188 0 464 0 c 2
 100 0 l 1
 80 0 l 1
 80 20 l 1
 80 200 l 1
 80 220 l 1
 100 220 l 1
 465 220 l 2
 655.1640625 220 709.297851562 266.780273438 709.297851562 320.186523438 c 0
 709.297851562 362.415039062 676.49609375 423.6484375 616.865234375 492.92578125 c 2
 336.887695312 815.899414062 l 1
 325.3828125 829.171875 l 1
 337.057617188 842.293945312 l 1
 458.057617188 978.293945312 l 1
 473.333984375 995.463867188 l 1
 488.23046875 977.962890625 l 1
 934.190429688 454.009765625 l 2
 1128.64746094 228.369140625 1146 220 1200 220 c 2
 1209 220 l 6
 1230 220 1234 165.04296875 1234 117 c 6
 1234 106 l 6
 1234 56.2763671875 1230 0 1209 0 c 6
EndSplineSet
EndChar

StartChar: uniFEAE
Encoding: 65198 65198 185
GlifName: uniF_E_A_E_
Width: 883
VWidth: 2551
GlyphClass: 2
Flags: HW
AnchorPoint: "Anchor-10" 511 973 basechar 0
AnchorPoint: "Anchor-7" 297 -599 basechar 0
LayerCount: 2
Fore
SplineSet
888 0 m 6
 872 0 l 2
 788 0 721.75 15.986328125 676.943359375 50.328125 c 1
 660.614257812 -273.709960938 452.651367188 -462.099609375 86.27734375 -466.998046875 c 2
 14.27734375 -467.998046875 l 1
 -6 -468.279296875 l 1
 -6 -448 l 1
 -6 -273 l 1
 -6 -253 l 1
 14 -253 l 1
 84 -253 l 2
 334.701171875 -253 462 -134.004882812 462 92 c 2
 462 626 l 1
 462 646 l 1
 482 646 l 1
 657 646 l 1
 677 646 l 1
 677 626 l 1
 677 403 l 2
 677 278.32421875 738 220 872 220 c 2
 888 220 l 6
 909 220 913 165.04296875 913 117 c 6
 913 106 l 6
 913 56.2763671875 909 0 888 0 c 6
EndSplineSet
PairPos2: "'kern' Horizontal Kerning lookup 15-1" uniFEE7 dx=-178 dy=0 dh=-178 dv=0 dx=0 dy=0 dh=0 dv=0
PairPos2: "'kern' Horizontal Kerning lookup 15-2" uni0698 dx=-40 dy=0 dh=-40 dv=0 dx=0 dy=0 dh=0 dv=0
PairPos2: "'kern' Horizontal Kerning lookup 15-2" uni0648 dx=-30 dy=0 dh=-30 dv=0 dx=0 dy=0 dh=0 dv=0
PairPos2: "'kern' Horizontal Kerning lookup 15-2" uni0624 dx=-30 dy=0 dh=-30 dv=0 dx=0 dy=0 dh=0 dv=0
PairPos2: "'kern' Horizontal Kerning lookup 15-2" uni0632 dx=-30 dy=0 dh=-30 dv=0 dx=0 dy=0 dh=0 dv=0
PairPos2: "'kern' Horizontal Kerning lookup 15-2" uni0631 dx=-30 dy=0 dh=-30 dv=0 dx=0 dy=0 dh=0 dv=0
PairPos2: "'kern' Horizontal Kerning lookup 15-2" uniFB90 dx=-180 dy=0 dh=-180 dv=0 dx=0 dy=0 dh=0 dv=0
PairPos2: "'kern' Horizontal Kerning lookup 15-2" uniFB8E dx=-180 dy=0 dh=-180 dv=0 dx=0 dy=0 dh=0 dv=0
PairPos2: "'kern' Horizontal Kerning lookup 15-2" uni06A9 dx=-180 dy=0 dh=-180 dv=0 dx=0 dy=0 dh=0 dv=0
PairPos2: "'kern' Horizontal Kerning lookup 15-2" uniFEEB dx=-178 dy=0 dh=-178 dv=0 dx=0 dy=0 dh=0 dv=0
PairPos2: "'kern' Horizontal Kerning lookup 15-2" uni0647 dx=-178 dy=0 dh=-178 dv=0 dx=0 dy=0 dh=0 dv=0
PairPos2: "'kern' Horizontal Kerning lookup 15-2" uniFEE3 dx=-178 dy=0 dh=-178 dv=0 dx=0 dy=0 dh=0 dv=0
PairPos2: "'kern' Horizontal Kerning lookup 15-2" uni0645 dx=-178 dy=0 dh=-178 dv=0 dx=0 dy=0 dh=0 dv=0
PairPos2: "'kern' Horizontal Kerning lookup 15-2" uniFEFB dx=-143 dy=0 dh=-143 dv=0 dx=0 dy=0 dh=0 dv=0
PairPos2: "'kern' Horizontal Kerning lookup 15-2" uniFEDF dx=-143 dy=0 dh=-143 dv=0 dx=0 dy=0 dh=0 dv=0
PairPos2: "'kern' Horizontal Kerning lookup 15-2" uni0644 dx=-60 dy=0 dh=-60 dv=0 dx=0 dy=0 dh=0 dv=0
PairPos2: "'kern' Horizontal Kerning lookup 15-2" uniFEDB dx=-180 dy=0 dh=-180 dv=0 dx=0 dy=0 dh=0 dv=0
PairPos2: "'kern' Horizontal Kerning lookup 15-2" uni0643 dx=-143 dy=0 dh=-143 dv=0 dx=0 dy=0 dh=0 dv=0
PairPos2: "'kern' Horizontal Kerning lookup 15-2" uniFED7 dx=-178 dy=0 dh=-178 dv=0 dx=0 dy=0 dh=0 dv=0
PairPos2: "'kern' Horizontal Kerning lookup 15-2" uniFED3 dx=-178 dy=0 dh=-178 dv=0 dx=0 dy=0 dh=0 dv=0
PairPos2: "'kern' Horizontal Kerning lookup 15-2" uni0641 dx=-178 dy=0 dh=-178 dv=0 dx=0 dy=0 dh=0 dv=0
PairPos2: "'kern' Horizontal Kerning lookup 15-2" uniFECF dx=-178 dy=0 dh=-178 dv=0 dx=0 dy=0 dh=0 dv=0
PairPos2: "'kern' Horizontal Kerning lookup 15-2" uniFECB dx=-178 dy=0 dh=-178 dv=0 dx=0 dy=0 dh=0 dv=0
PairPos2: "'kern' Horizontal Kerning lookup 15-2" uniFEC7 dx=-178 dy=0 dh=-178 dv=0 dx=0 dy=0 dh=0 dv=0
PairPos2: "'kern' Horizontal Kerning lookup 15-2" uni0638 dx=-178 dy=0 dh=-178 dv=0 dx=0 dy=0 dh=0 dv=0
PairPos2: "'kern' Horizontal Kerning lookup 15-2" uniFEC3 dx=-178 dy=0 dh=-178 dv=0 dx=0 dy=0 dh=0 dv=0
PairPos2: "'kern' Horizontal Kerning lookup 15-2" uni0637 dx=-178 dy=0 dh=-178 dv=0 dx=0 dy=0 dh=0 dv=0
PairPos2: "'kern' Horizontal Kerning lookup 15-2" uniFEBF dx=-178 dy=0 dh=-178 dv=0 dx=0 dy=0 dh=0 dv=0
PairPos2: "'kern' Horizontal Kerning lookup 15-2" uni0636 dx=-178 dy=0 dh=-178 dv=0 dx=0 dy=0 dh=0 dv=0
PairPos2: "'kern' Horizontal Kerning lookup 15-2" uniFEBB dx=-178 dy=0 dh=-178 dv=0 dx=0 dy=0 dh=0 dv=0
PairPos2: "'kern' Horizontal Kerning lookup 15-2" uni0635 dx=-178 dy=0 dh=-178 dv=0 dx=0 dy=0 dh=0 dv=0
PairPos2: "'kern' Horizontal Kerning lookup 15-2" uniFEB7 dx=-178 dy=0 dh=-178 dv=0 dx=0 dy=0 dh=0 dv=0
PairPos2: "'kern' Horizontal Kerning lookup 15-2" uni0634 dx=-178 dy=0 dh=-178 dv=0 dx=0 dy=0 dh=0 dv=0
PairPos2: "'kern' Horizontal Kerning lookup 15-2" uniFEB3 dx=-178 dy=0 dh=-178 dv=0 dx=0 dy=0 dh=0 dv=0
PairPos2: "'kern' Horizontal Kerning lookup 15-2" uni0633 dx=-178 dy=0 dh=-178 dv=0 dx=0 dy=0 dh=0 dv=0
PairPos2: "'kern' Horizontal Kerning lookup 15-2" uni0630 dx=-178 dy=0 dh=-178 dv=0 dx=0 dy=0 dh=0 dv=0
PairPos2: "'kern' Horizontal Kerning lookup 15-2" uni062F dx=-178 dy=0 dh=-178 dv=0 dx=0 dy=0 dh=0 dv=0
PairPos2: "'kern' Horizontal Kerning lookup 15-2" uniFEA7 dx=-178 dy=0 dh=-178 dv=0 dx=0 dy=0 dh=0 dv=0
PairPos2: "'kern' Horizontal Kerning lookup 15-2" uniFEA3 dx=-178 dy=0 dh=-178 dv=0 dx=0 dy=0 dh=0 dv=0
PairPos2: "'kern' Horizontal Kerning lookup 15-2" uniFE9F dx=-178 dy=0 dh=-178 dv=0 dx=0 dy=0 dh=0 dv=0
PairPos2: "'kern' Horizontal Kerning lookup 15-2" uniFE9B dx=-178 dy=0 dh=-178 dv=0 dx=0 dy=0 dh=0 dv=0
PairPos2: "'kern' Horizontal Kerning lookup 15-2" uni062B dx=-178 dy=0 dh=-178 dv=0 dx=0 dy=0 dh=0 dv=0
PairPos2: "'kern' Horizontal Kerning lookup 15-2" uniFE97 dx=-178 dy=0 dh=-178 dv=0 dx=0 dy=0 dh=0 dv=0
PairPos2: "'kern' Horizontal Kerning lookup 15-2" uni062A dx=-178 dy=0 dh=-178 dv=0 dx=0 dy=0 dh=0 dv=0
PairPos2: "'kern' Horizontal Kerning lookup 15-2" uni0629 dx=-178 dy=0 dh=-178 dv=0 dx=0 dy=0 dh=0 dv=0
PairPos2: "'kern' Horizontal Kerning lookup 15-2" uni0628 dx=-178 dy=0 dh=-178 dv=0 dx=0 dy=0 dh=0 dv=0
PairPos2: "'kern' Horizontal Kerning lookup 15-2" uni0627 dx=-163 dy=0 dh=-163 dv=0 dx=0 dy=0 dh=0 dv=0
PairPos2: "'kern' Horizontal Kerning lookup 15-2" uni0623 dx=-163 dy=0 dh=-163 dv=0 dx=0 dy=0 dh=0 dv=0
PairPos2: "'kern' Horizontal Kerning lookup 15-2" uni0622 dx=-163 dy=0 dh=-163 dv=0 dx=0 dy=0 dh=0 dv=0
PairPos2: "'kern' Horizontal Kerning lookup 15-2" uni0621 dx=-178 dy=0 dh=-178 dv=0 dx=0 dy=0 dh=0 dv=0
PairPos2: "'kern' Horizontal Kerning lookup 15-2" uniFB94 dx=-180 dy=0 dh=-180 dv=0 dx=0 dy=0 dh=0 dv=0
PairPos2: "'kern' Horizontal Kerning lookup 15-2" uniFB92 dx=-180 dy=0 dh=-180 dv=0 dx=0 dy=0 dh=0 dv=0
PairPos2: "'kern' Horizontal Kerning lookup 15-2" uni06AF dx=-180 dy=0 dh=-180 dv=0 dx=0 dy=0 dh=0 dv=0
PairPos2: "'kern' Horizontal Kerning lookup 15-2" uni067E dx=-178 dy=0 dh=-178 dv=0 dx=0 dy=0 dh=0 dv=0
PairPos2: "'kern' Horizontal Kerning lookup 15-2" uni0640 dx=-178 dy=0 dh=-178 dv=0 dx=0 dy=0 dh=0 dv=0
PairPos2: "'kern' Horizontal Kerning lookup 15-2" uniFE8B dx=-178 dy=0 dh=-178 dv=0 dx=0 dy=0 dh=0 dv=0
PairPos2: "'kern' Horizontal Kerning lookup 15-2" uniFB7C dx=-120 dy=0 dh=-120 dv=0 dx=0 dy=0 dh=0 dv=0
PairPos2: "'kern' Horizontal Kerning lookup 15-2" uniFE91 dx=-60 dy=0 dh=-60 dv=0 dx=0 dy=0 dh=0 dv=0
PairPos2: "'kern' Horizontal Kerning lookup 15-5" uni06C0 dx=-178 dy=0 dh=-178 dv=0 dx=0 dy=0 dh=0 dv=0
EndChar

StartChar: uniFEB2
Encoding: 65202 65202 189
GlifName: uniF_E_B_2
Width: 2619
VWidth: 2551
GlyphClass: 2
Flags: HW
AnchorPoint: "Anchor-10" 1775 1084 basechar 0
AnchorPoint: "Anchor-7" 688 -648 basechar 0
LayerCount: 2
Fore
SplineSet
2625 0 m 6
 2605 0 l 2
 2465 0 2362.93945312 41.4853515625 2296.94238281 122.663085938 c 1
 2244.1953125 39.2548828125 2175.37597656 0 2063 0 c 0
 1940.38769531 0 1855.23535156 42.9501953125 1796.421875 124.16796875 c 1
 1735.61914062 38.244140625 1641.77148438 0 1520.88085938 0 c 0
 1454.35351562 0.7919921875 1391.80761719 17.8525390625 1344.84863281 55.78125 c 1
 1338.37402344 -280.88671875 1130.49609375 -449 744 -449 c 2
 693 -449 l 2
 290.815429688 -449 80 -257.631835938 80 121 c 2
 80 462 l 1
 80 482 l 1
 100 482 l 1
 274 482 l 1
 294 482 l 1
 294 462 l 1
 294 122 l 2
 294 -114.682617188 422.544921875 -230 693 -230 c 2
 744 -230 l 2
 1016.81347656 -230 1141 -130.366210938 1141 67 c 2
 1141 651 l 1
 1141 671 l 1
 1161 671 l 1
 1337 671 l 1
 1357 671 l 1
 1357 651 l 1
 1357 417 l 2
 1357 277.96875 1413.58105469 219.978515625 1527.19921875 219.978515625 c 0
 1632.22070312 219.978515625 1685 274.240234375 1685 393.038085938 c 2
 1686 654.076171875 l 1
 1686.07617188 674 l 1
 1706 674 l 1
 1876 674 l 1
 1895.92285156 674 l 1
 1896 654.077148438 l 1
 1897 395.116210938 l 2
 1897.93945312 273.864257812 1949.04492188 220.987304688 2059.78125 220.9765625 c 0
 2155.28222656 220.9765625 2190 270.518554688 2190 393 c 2
 2190 654 l 1
 2190 674 l 1
 2210 674 l 1
 2373 674 l 1
 2392.92285156 674 l 1
 2393 654.077148438 l 1
 2394 396.115234375 l 2
 2394.91308594 277.390625 2457 220 2597 220 c 2
 2625 220 l 6
 2646 220 2650 165.04296875 2650 117 c 6
 2650 106 l 6
 2650 56.2763671875 2646 0 2625 0 c 6
EndSplineSet
EndChar

StartChar: uniFEB3
Encoding: 65203 65203 190
GlifName: uniF_E_B_3
Width: 1640
VWidth: 2551
GlyphClass: 2
Flags: HW
AnchorPoint: "Anchor-10" 925 1100 basechar 0
AnchorPoint: "Anchor-7" 846 -221 basechar 0
LayerCount: 2
Fore
SplineSet
-5 220 m 6
 90 220 l 2
 239 220 307 277.752929688 307 394 c 2
 307 654 l 1
 307 674 l 1
 327 674 l 1
 498 674 l 1
 517.923828125 674 l 1
 518 654.076171875 l 1
 519 392.1171875 l 2
 519.936523438 273.112304688 571.791015625 219.98828125 685.696289062 219.98828125 c 0
 792.571289062 219.98828125 846 273.5859375 846 393.038085938 c 2
 847 654.076171875 l 1
 847.076171875 674 l 1
 867 674 l 1
 1037 674 l 1
 1056.92285156 674 l 1
 1057 654.077148438 l 1
 1058 395.116210938 l 2
 1058.94042969 273.786132812 1110.16015625 220.98828125 1219.27539062 220.98828125 c 0
 1303.28125 220.98828125 1345 269.262695312 1345 391 c 2
 1345 686 l 1
 1345 706 l 1
 1365 706 l 1
 1540 706 l 1
 1560 706 l 1
 1560 686 l 1
 1560 383 l 2
 1560 143.380859375 1437.04296875 0 1225 0 c 0
 1101.69335938 0 1017.12011719 42.1181640625 957.421875 124.166992188 c 1
 896.631835938 38.2626953125 802.66796875 0 682 0 c 0
 569.775390625 0 481.228515625 40.8095703125 416.598632812 126.55078125 c 1
 349.192382812 42.29296875 246 0 89 0 c 2
 -5 0 l 6
 -26 0 -30 56.28515625 -30 106 c 6
 -30 117 l 6
 -30 165.1328125 -26 220 -5 220 c 6
EndSplineSet
EndChar

StartChar: uniFEB4
Encoding: 65204 65204 191
GlifName: uniF_E_B_4
Width: 1781
VWidth: 2546
GlyphClass: 2
Flags: HW
AnchorPoint: "Anchor-7" 846 -221 basechar 0
AnchorPoint: "Anchor-10" 925 1100 basechar 0
LayerCount: 2
Fore
SplineSet
1787 0 m 2
 1767 0 l 2
 1627 0 1524.93945312 41.4853515625 1458.94238281 122.663085938 c 1
 1406.1953125 39.2548828125 1337.37597656 0 1225 0 c 0
 1101.69335938 0 1017.12011719 42.1181640625 957.421875 124.16796875 c 1
 896.631835938 38.2626953125 802.668945312 0 682 0 c 0
 569.775390625 0 481.228515625 40.8095703125 416.598632812 126.55078125 c 1
 349.192382812 42.2939453125 246 0 89 0 c 2
 -5 0 l 2
 -26 0 -30 56.28515625 -30 106 c 2
 -30 117 l 2
 -30 165.1328125 -26 220 -5 220 c 2
 90 220 l 2
 239 220 307 277.752929688 307 394 c 2
 307 654 l 1
 307 674 l 1
 327 674 l 1
 498 674 l 1
 517.923828125 674 l 1
 518 654.076171875 l 1
 519 392.1171875 l 2
 519.936523438 273.112304688 571.791015625 219.98828125 685.696289062 219.98828125 c 0
 792.572265625 219.98828125 846 273.5859375 846 393.038085938 c 2
 847 654.076171875 l 1
 847.076171875 674 l 1
 867 674 l 1
 1037 674 l 1
 1056.92285156 674 l 1
 1057 654.077148438 l 1
 1058 395.116210938 l 2
 1058.95019531 272.525390625 1110.54003906 220.9765625 1221.78125 220.9765625 c 0
 1306.88671875 220.9765625 1347 270.759765625 1347 393 c 2
 1347 654 l 1
 1347 674 l 1
 1367 674 l 1
 1535 674 l 1
 1554.92285156 674 l 1
 1555 654.077148438 l 1
 1556 396.115234375 l 2
 1556.91308594 277.390625 1619 220 1759 220 c 2
 1787 220 l 2
 1808 220 1812 165.04296875 1812 117 c 2
 1812 106 l 2
 1812 56.2763671875 1808 0 1787 0 c 2
EndSplineSet
EndChar

StartChar: uniFEBA
Encoding: 65210 65210 197
GlifName: uniF_E_B_A_
Width: 2561
VWidth: 2551
GlyphClass: 2
Flags: HW
AnchorPoint: "Anchor-10" 1977 1168 basechar 0
AnchorPoint: "Anchor-7" 688 -648 basechar 0
LayerCount: 2
Fore
SplineSet
2566 0 m 6
 2537 0 l 2
 2412 0 2321.17578125 17.072265625 2256.90722656 72.6328125 c 1
 2175.82714844 21.5 2077.64550781 0 1958 0 c 2
 1618 0 l 2
 1491.64160156 0 1400.36132812 18.232421875 1344.89648438 58.55859375 c 1
 1339.55371094 -279.7578125 1131.65332031 -449 744 -449 c 2
 693 -449 l 2
 290.815429688 -449 80 -257.631835938 80 121 c 2
 80 462 l 1
 80 482 l 1
 100 482 l 1
 274 482 l 1
 294 482 l 1
 294 462 l 1
 294 122 l 2
 294 -114.682617188 422.544921875 -230 693 -230 c 2
 744 -230 l 2
 1016.81347656 -230 1141 -130.366210938 1141 67 c 2
 1141 651 l 1
 1141 671 l 1
 1161 671 l 1
 1337 671 l 1
 1357 671 l 1
 1357 651 l 1
 1357 437 l 2
 1357 317.494140625 1391.9296875 262.983398438 1432.77832031 246.844726562 c 1
 1596.44726562 609.16796875 1756.78710938 815 2015 815 c 0
 2244.93652344 815 2425 620.130859375 2425 387 c 0
 2425 324.232421875 2412.33007812 267.401367188 2390.765625 220 c 1
 2566 220 l 6
 2587 220 2591 165.04296875 2591 117 c 6
 2591 106 l 6
 2591 56.2763671875 2587 0 2566 0 c 6
2004 592 m 0
 1887.91699219 592 1767.82421875 474.123046875 1648.24609375 220 c 1
 1978 220 l 2
 2126.40429688 220 2210 262.176757812 2210 367 c 0
 2210 497.122070312 2114.95605469 592 2004 592 c 0
EndSplineSet
EndChar

StartChar: uniFEBB
Encoding: 65211 65211 198
GlifName: uniF_E_B_B_
Width: 1658
VWidth: 2551
GlyphClass: 2
Flags: HW
AnchorPoint: "Anchor-10" 1127 1168 basechar 0
AnchorPoint: "Anchor-7" 674 -230 basechar 0
LayerCount: 2
Fore
SplineSet
-5 220 m 6
 71 220 l 2
 209 220 275 279.990234375 275 406 c 2
 275 653 l 1
 275 673 l 1
 295 673 l 1
 463 673 l 1
 482.920898438 673 l 1
 483 653.080078125 l 1
 484 402.080078125 l 2
 484.423828125 295.596679688 524.517578125 249.220703125 584.3046875 243.57421875 c 1
 748.333984375 607.630859375 909.965820312 815 1168 815 c 0
 1398.296875 815 1578 619.643554688 1578 387 c 0
 1578 130.30078125 1382.01855469 0 1111 0 c 2
 771 0 l 2
 582.069335938 0 453.40234375 38.69140625 388.362304688 123.220703125 c 1
 322.369140625 40.8818359375 224 0 78 0 c 2
 -5 0 l 6
 -26 0 -30 56.28515625 -30 106 c 6
 -30 117 l 6
 -30 165.1328125 -26 220 -5 220 c 6
1363 367 m 0
 1363 497.5859375 1267.93164062 592 1157 592 c 0
 1041.89355469 592 920.904296875 474.129882812 801.25 220 c 1
 1131 220 l 2
 1279.37207031 220 1363 261.973632812 1363 367 c 0
EndSplineSet
EndChar

StartChar: uniFEBC
Encoding: 65212 65212 199
GlifName: uniF_E_B_C_
Width: 1713
VWidth: 2551
GlyphClass: 2
Flags: HW
AnchorPoint: "Anchor-10" 1127 1168 basechar 0
AnchorPoint: "Anchor-7" 674 -230 basechar 0
LayerCount: 2
Fore
SplineSet
1719 0 m 6
 1690 0 l 2
 1565 0 1474.17578125 17.072265625 1409.90722656 72.6328125 c 1
 1328.82714844 21.5 1230.64550781 0 1111 0 c 2
 771 0 l 2
 582.09765625 0 453.33203125 38.7822265625 388.4375 123.123046875 c 1
 322.858398438 40.6630859375 224 0 78 0 c 2
 -5 0 l 2
 -26 0 -30 56.28515625 -30 106 c 2
 -30 117 l 2
 -30 165.1328125 -26 220 -5 220 c 2
 71 220 l 2
 209 220 275 279.990234375 275 406 c 2
 275 653 l 1
 275 673 l 1
 295 673 l 1
 463 673 l 1
 482.920898438 673 l 1
 483 653.080078125 l 1
 484 402.040039062 l 2
 484 295.30078125 524.244140625 249.203125 584.317382812 243.567382812 c 1
 748.797851562 607.56640625 910.256835938 815 1168 815 c 0
 1397.93652344 815 1578 620.130859375 1578 387 c 0
 1578 324.232421875 1565.33007812 267.401367188 1543.765625 220 c 1
 1719 220 l 6
 1740 220 1744 165.04296875 1744 117 c 6
 1744 106 l 6
 1744 56.2763671875 1740 0 1719 0 c 6
1363 367 m 0
 1363 497.122070312 1267.95605469 592 1157 592 c 0
 1041.89355469 592 920.904296875 474.129882812 801.25 220 c 1
 1131 220 l 2
 1279.40429688 220 1363 262.176757812 1363 367 c 0
EndSplineSet
EndChar

StartChar: uniFEC2
Encoding: 65218 65218 205
GlifName: uniF_E_C_2
Width: 1414
VWidth: 2551
GlyphClass: 2
Flags: HW
AnchorPoint: "Anchor-10" 447 1463 basechar 0
AnchorPoint: "Anchor-7" 610 -218 basechar 0
LayerCount: 2
Fore
SplineSet
1419 0 m 6
 1390 0 l 2
 1265 0 1174.17578125 17.072265625 1109.90722656 72.6328125 c 1
 1028.82714844 21.5 930.645507812 0 811 0 c 2
 100 0 l 1
 80 0 l 1
 80 20 l 1
 80 200 l 1
 80 220 l 1
 100 220 l 1
 275.703125 220 l 1
 299.779296875 276.447265625 325.379882812 323.71484375 349 370.731445312 c 1
 349 1315 l 1
 349 1335 l 1
 369 1335 l 1
 535 1335 l 1
 555 1335 l 1
 555 1315 l 1
 555 669.268554688 l 1
 645.547851562 759.15625 748.15234375 815 868 815 c 0
 1097.93652344 815 1278 620.130859375 1278 387 c 0
 1278 324.232421875 1265.33007812 267.401367188 1243.765625 220 c 1
 1419 220 l 6
 1440 220 1444 165.04296875 1444 117 c 6
 1444 106 l 6
 1444 56.2763671875 1440 0 1419 0 c 6
857 592 m 0
 740.916992188 592 620.82421875 474.123046875 501.24609375 220 c 1
 831 220 l 2
 979.404296875 220 1063 262.176757812 1063 367 c 0
 1063 497.122070312 967.956054688 592 857 592 c 0
EndSplineSet
EndChar

StartChar: uniFEC3
Encoding: 65219 65219 206
GlifName: uniF_E_C_3
Width: 1230
VWidth: 2551
GlyphClass: 2
Flags: HW
AnchorPoint: "Anchor-10" 327 1463 basechar 0
AnchorPoint: "Anchor-7" 480 -218 basechar 0
LayerCount: 2
Fore
SplineSet
-5 220 m 2
 147.703125 220 l 5
 171.779296875 276.447265625 197.379882812 323.71484375 221 370.731445312 c 5
 221 1315 l 5
 221 1335 l 5
 241 1335 l 5
 407 1335 l 5
 427 1335 l 5
 427 1315 l 5
 427 669.233398438 l 5
 517.8359375 759.234375 620.99609375 815 740 815 c 4
 969.936523438 815 1150 620.130859375 1150 387 c 4
 1150 130.125976562 954 0 683 0 c 6
 -5 0 l 2
 -26 0 -30 56.28515625 -30 106 c 2
 -30 117 l 2
 -30 165.1328125 -26 220 -5 220 c 2
935 367 m 4
 935 497.122070312 839.956054688 592 729 592 c 4
 613.893554688 592 492.904296875 474.129882812 373.25 220 c 5
 703 220 l 6
 851.404296875 220 935 262.176757812 935 367 c 4
EndSplineSet
EndChar

StartChar: uniFEC4
Encoding: 65220 65220 207
GlifName: uniF_E_C_4
Width: 1286
VWidth: 2551
GlyphClass: 2
Flags: HW
AnchorPoint: "Anchor-10" 327 1463 basechar 0
AnchorPoint: "Anchor-7" 480 -218 basechar 0
LayerCount: 2
Fore
SplineSet
1291 0 m 6
 1262 0 l 6
 1137 0 1046.17578125 17.072265625 981.907226562 72.6328125 c 5
 900.827148438 21.5 803 0 683 0 c 6
 -5 0 l 2
 -26 0 -30 56.28515625 -30 106 c 2
 -30 117 l 2
 -30 165.1328125 -26 220 -5 220 c 2
 147.703125 220 l 5
 171.779296875 276.447265625 197.379882812 323.71484375 221 370.731445312 c 5
 221 1315 l 5
 221 1335 l 5
 241 1335 l 5
 407 1335 l 5
 427 1335 l 5
 427 1315 l 5
 427 669.268554688 l 5
 517.547851562 759.15625 620.15234375 815 740 815 c 4
 969.936523438 815 1150 620.130859375 1150 387 c 4
 1150 324.232421875 1137.33007812 267.401367188 1115.765625 220 c 5
 1291 220 l 6
 1312 220 1316 165.04296875 1316 117 c 6
 1316 106 l 6
 1316 56.2763671875 1312 0 1291 0 c 6
729 592 m 4
 612.916992188 592 492.82421875 474.123046875 373.24609375 220 c 5
 703 220 l 6
 851.404296875 220 935 262.176757812 935 367 c 4
 935 497.122070312 839.956054688 592 729 592 c 4
EndSplineSet
EndChar

StartChar: uniFECA
Encoding: 65226 65226 213
GlifName: uniF_E_C_A_
Width: 1225
VWidth: 2551
GlyphClass: 2
Flags: HW
AnchorPoint: "Anchor-7" 713 -878 basechar 0
AnchorPoint: "Anchor-10" 654 1132 basechar 0
LayerCount: 2
Fore
SplineSet
1230 0 m 6
 1126 0 l 2
 938 0 791.645507812 50.1787109375 636.698242188 147.166015625 c 1
 393.823242188 28.826171875 292 -102.0390625 292 -198 c 0
 292 -401.600585938 438.248046875 -479 792 -479 c 2
 1114 -479 l 1
 1134 -479 l 1
 1134 -499 l 1
 1134 -675 l 1
 1134 -695 l 1
 1114 -695 l 1
 780 -695 l 2
 363.40625 -695 80 -556.288085938 80 -205 c 0
 80 -9.763671875 240.534179688 159.3984375 445.76171875 281.424804688 c 1
 374.564453125 326.024414062 177 451.75390625 177 565 c 0
 177 766.684570312 400.611328125 834 662 834 c 0
 923.43359375 834 1146 766.639648438 1146 565 c 0
 1146 451.813476562 929.614257812 314.658203125 851.646484375 265.76953125 c 1
 936.325195312 233.748046875 1004 220 1137 220 c 2
 1230 220 l 6
 1251 220 1255 165.04296875 1255 117 c 6
 1255 106 l 6
 1255 56.2763671875 1251 0 1230 0 c 6
661 382.065429688 m 1
 709.65625 410.196289062 908.142578125 532.5546875 925.8984375 565.352539062 c 1
 922.220703125 587.360351562 823.578125 624 660 624 c 0
 498.493164062 624 399.752929688 586.890625 396.103515625 565.348632812 c 1
 414.517578125 531.336914062 614.67578125 408.848632812 661 382.065429688 c 1
EndSplineSet
EndChar

StartChar: uniFECB
Encoding: 65227 65227 214
GlifName: uniF_E_C_B_
Width: 1020
VWidth: 2551
GlyphClass: 2
Flags: HW
AnchorPoint: "Anchor-10" 527 1272 basechar 0
AnchorPoint: "Anchor-7" 461 -226 basechar 0
LayerCount: 2
Fore
SplineSet
-5 220 m 6
 254.284179688 220 l 1
 187.220703125 290.61328125 148 370.91015625 148 471 c 0
 148 710.766601562 322.067382812 886 564 886 c 0
 699.482421875 886 811.907226562 833.030273438 896.479492188 729.665039062 c 2
 905.029296875 719.213867188 l 1
 898.532226562 707.376953125 l 1
 825.532226562 574.376953125 l 1
 813.00390625 551.549804688 l 1
 794.180664062 569.54296875 l 2
 729.461914062 631.405273438 655.940429688 662 569 662 c 0
 457.5390625 662 363 587.97265625 363 472 c 0
 363 415.299804688 390.4765625 364.25 450.564453125 316.561523438 c 0
 505.953125 271.063476562 547.659179688 251 574 251 c 0
 594.104492188 251 639.21875 258.653320312 703.412109375 273.466796875 c 2
 915.322265625 324.4453125 l 1
 940 330.381835938 l 1
 940 305 l 1
 940 124 l 1
 940 109.107421875 l 1
 925.731445312 104.838867188 l 2
 690.375 34.4326171875 484 0 305 0 c 2
 -5 0 l 6
 -26 0 -30 56.28515625 -30 106 c 6
 -30 117 l 6
 -30 165.1328125 -26 220 -5 220 c 6
EndSplineSet
EndChar

StartChar: uniFEDA
Encoding: 65242 65242 229
GlifName: uniF_E_D_A_
Width: 1969
VWidth: 2551
GlyphClass: 2
Flags: HW
AnchorPoint: "Anchor-10" 948.836 1295.23 basechar 0
AnchorPoint: "Anchor-7" 850 -213 basechar 0
LayerCount: 2
Fore
SplineSet
1975 -1 m 2
 1943 -1 l 2
 1827 -1 1735.82910156 44.7822265625 1673.18164062 133.28125 c 1
 1608.38183594 42.3984375 1497.71875 0 1347 0 c 2
 535 0 l 2
 237.249023438 0 82 158.887695312 82 462 c 2
 82 673 l 1
 82 693 l 1
 102 693 l 1
 277 693 l 1
 297 693 l 1
 297 673 l 1
 297 463 l 2
 297 297.28515625 373.553710938 220 538 220 c 2
 1352 220 l 2
 1492.03417969 220 1559 296 1559 468 c 2
 1559 1313 l 1
 1559 1333 l 1
 1579 1333 l 1
 1746 1333 l 1
 1766 1333 l 1
 1766 1313 l 1
 1766 465 l 2
 1766 301 1827 220 1948.81445312 220 c 6
 1975 220 l 6
 1996 220 2000 164.04296875 2000 116 c 2
 2000 105 l 2
 2000 55.2763671875 1996 -1 1975 -1 c 2
860.8359375 659.23046875 m 0
 956.59765625 659.23046875 1016.8359375 673.497070312 1016.8359375 718.23046875 c 0
 1016.8359375 778.427734375 751.7265625 723.521484375 751.7265625 948.451171875 c 0
 751.7265625 1086.0078125 861.693359375 1168.58300781 1039.765625 1168.58300781 c 0
 1068.65625 1168.58300781 1098.67773438 1166.38378906 1128.70996094 1162.02246094 c 2
 1145.8359375 1159.53613281 l 1
 1145.8359375 1142.23046875 l 1
 1145.8359375 1036.23046875 l 1
 1145.8359375 1014.05859375 l 1
 1123.78125 1016.3359375 l 2
 1100.75488281 1018.71484375 1076.28125 1020.28027344 1052.36425781 1020.28027344 c 0
 963.984375 1020.28027344 904.8359375 999.575195312 904.8359375 949.23046875 c 0
 904.8359375 855.708007812 1166.8359375 935.920898438 1166.8359375 737.23046875 c 0
 1166.8359375 554.512695312 1004.45507812 504 846 504 c 0
 800.698242188 504 747.170898438 510.693359375 700.0078125 517.431640625 c 2
 682.8359375 519.884765625 l 1
 682.8359375 537.23046875 l 1
 682.8359375 651.23046875 l 1
 682.8359375 673.487304688 l 1
 704.966796875 671.116210938 l 2
 755.93359375 665.65625 810.087890625 659.23046875 860.8359375 659.23046875 c 0
EndSplineSet
EndChar

StartChar: uniFEDB
Encoding: 65243 65243 230
GlifName: uniF_E_D_B_
Width: 938
VWidth: 2551
GlyphClass: 2
Flags: HW
AnchorPoint: "Anchor-10" 276 1408 basechar 0
AnchorPoint: "Anchor-7" 349 -201 basechar 0
LayerCount: 2
Fore
SplineSet
-5 220 m 6
 343 220 l 2
 509 220 573 263.798828125 573 334 c 0
 573 359.879882812 540.840820312 418.951171875 465.919921875 503.861328125 c 2
 151.837890625 868.95703125 l 2
 117.668945312 908.67578125 91 956.743164062 91 1018.125 c 0
 92.1044921875 1106.46582031 139.944908876 1167.63772229 223.8046875 1195.01660156 c 2
 855 1401.09179688 l 1
 855 1373.51171875 l 1
 855 1194.51171875 l 1
 855 1180 l 1
 318.774414062 1005.30957031 l 1
 607.143554688 671.064453125 l 2
 721.873046875 538.083007812 779.021484375 438.916992188 779.021484375 333.68359375 c 0
 779.021484375 117.740234375 624 0 341 0 c 2
 -5 0 l 6
 -26 0 -30 56.28515625 -30 106 c 6
 -30 117 l 6
 -30 165.1328125 -26 220 -5 220 c 6
EndSplineSet
EndChar

StartChar: uniFEDC
Encoding: 65244 65244 231
GlifName: uniF_E_D_C_
Width: 1106
VWidth: 2551
GlyphClass: 2
Flags: HW
AnchorPoint: "Anchor-7" 349 -201 basechar 0
AnchorPoint: "Anchor-10" 276 1408 basechar 0
LayerCount: 2
Fore
SplineSet
1111 0 m 6
 1096 0 l 2
 962 0 845.900390625 63.1953125 749.34375 183.697265625 c 1
 689.303710938 57.9150390625 551 0 341 0 c 2
 -5 0 l 2
 -26 0 -30 56.28515625 -30 106 c 2
 -30 117 l 2
 -30 165.1328125 -26 220 -5 220 c 2
 343 220 l 2
 509 220 573 263.798828125 573 334 c 0
 573 359.879882812 540.840820312 418.951171875 465.919921875 503.861328125 c 2
 151.838867188 868.95703125 l 2
 116.356445312 910.201171875 91 956.975585938 91 1018.125 c 0
 92.1044921875 1106.46582031 140 1168 223.8046875 1195.01660156 c 2
 855 1401.09179688 l 1
 855 1373.51171875 l 1
 855 1194.51171875 l 1
 855 1180 l 1
 318.774414062 1005.30957031 l 1
 870.125 368.0859375 l 2
 958 267 1032 220 1087.15136719 220 c 2
 1111 220 l 6
 1132 220 1136 165.04296875 1136 117 c 6
 1136 106 l 6
 1136 56.2763671875 1132 0 1111 0 c 6
EndSplineSet
EndChar

StartChar: uniFEDE
Encoding: 65246 65246 233
GlifName: uniF_E_D_E_
Width: 1387
VWidth: 2551
GlyphClass: 2
Flags: HW
AnchorPoint: "Anchor-10" 599 1014.1 basechar 0
AnchorPoint: "Anchor-7" 659 -624 basechar 0
LayerCount: 2
Fore
SplineSet
1392 0 m 6
 1361 0 l 2
 1295 0 1246.63867188 15.5078125 1209.15722656 39.6279296875 c 1
 1195.35644531 -269.896484375 1017.38378906 -447 687 -447 c 2
 641 -447 l 2
 270.411132812 -447 80 -254.204101562 80 121 c 2
 80 462 l 1
 80 482 l 1
 100 482 l 1
 274 482 l 1
 294 482 l 1
 294 462 l 1
 294 122 l 2
 294 -113.602539062 406.461914062 -226 641 -226 c 2
 694 -226 l 2
 904.649414062 -226 1005 -121 1005 106 c 2
 1005 1313 l 1
 1005 1333 l 1
 1025 1333 l 1
 1191 1333 l 1
 1211.02148438 1333 l 1
 1211 1312.97851562 l 1
 1210 401.989257812 l 2
 1210 271 1259 220 1354 220 c 2
 1392 220 l 6
 1413 220 1417 165.04296875 1417 117 c 6
 1417 106 l 6
 1417 56.2763671875 1413 0 1392 0 c 6
EndSplineSet
EndChar

StartChar: uniFEDF
Encoding: 65247 65247 234
GlifName: uniF_E_D_F_
Width: 621
VWidth: 2551
GlyphClass: 2
Flags: HW
AnchorPoint: "Anchor-10" 382 1462 basechar 0
AnchorPoint: "Anchor-7" 229 -212 basechar 0
LayerCount: 2
Fore
SplineSet
-5 220 m 6
 117 220 l 2
 237 220 291 274 291 391 c 2
 291 1314 l 1
 291 1334 l 1
 311 1334 l 1
 478 1334 l 1
 498 1334 l 1
 498 1314 l 1
 498 392 l 2
 498 138 367 0 116 0 c 2
 -5 0 l 6
 -26 0 -30 56.28515625 -30 106 c 6
 -30 117 l 6
 -30 165.1328125 -26 220 -5 220 c 6
EndSplineSet
EndChar

StartChar: uniFEE0
Encoding: 65248 65248 235
GlifName: uniF_E_E_0
Width: 679
VWidth: 2551
GlyphClass: 2
Flags: HW
AnchorPoint: "Anchor-10" 387 1461 basechar 0
AnchorPoint: "Anchor-7" 279 -205 basechar 0
LayerCount: 2
Fore
SplineSet
685 0 m 6
 659 0 l 2
 539 0 455.041015625 44.19921875 391.18359375 118.8515625 c 1
 319.385742188 35.0087890625 213 0 110 0 c 2
 -5 0 l 2
 -26 0 -30 56.28515625 -30 106 c 2
 -30 117 l 2
 -30 165.1328125 -26 220 -5 220 c 2
 108 220 l 2
 235 220 291 273 291 387 c 2
 291 1314 l 1
 291 1334 l 1
 311 1334 l 1
 477 1334 l 1
 497 1334 l 1
 497 1314 l 1
 497 387 l 2
 497 271 537 220 669 220 c 2
 685 220 l 6
 706 220 710 165.04296875 710 117 c 6
 710 106 l 6
 710 56.2763671875 706 0 685 0 c 6
EndSplineSet
EndChar

StartChar: uniFEE2
Encoding: 65250 65250 237
GlifName: uniF_E_E_2
Width: 1387
VWidth: 2551
GlyphClass: 2
Flags: HW
AnchorPoint: "Anchor-7" 772 -258 basechar 0
AnchorPoint: "Anchor-10" 722 1156 basechar 0
LayerCount: 2
Fore
SplineSet
1392 0 m 6
 1357 0 l 2
 1258 0 1187.93847656 28.7490234375 1131.71289062 78.8583984375 c 1
 1066.11328125 7.3447265625 968.471679688 -20 866 -20 c 0
 616.451171875 -20 488 119.764648438 488 386 c 2
 488 553.241210938 l 1
 341.188476562 541.697265625 290 398.251953125 290 179 c 2
 290 -476 l 1
 290 -496 l 1
 270 -496 l 1
 100 -496 l 1
 80 -496 l 1
 80 -476 l 1
 80 180 l 2
 80 574.309570312 243.6328125 781 580 781 c 2
 855 781 l 2
 1096.49121094 781 1225 661.341796875 1225 431 c 2
 1225 387 l 2
 1225 267.640625 1266 220 1353 220 c 2
 1392 220 l 6
 1413 220 1417 165.04296875 1417 117 c 6
 1417 106 l 6
 1417 56.2763671875 1413 0 1392 0 c 6
840 569 m 2
 701 569 l 1
 701 388 l 2
 701 241.142578125 755.698242188 179 866 179 c 0
 962.671875 179 1012 239.421875 1012 388 c 2
 1012 430 l 2
 1012 523.671875 961.514648438 569 840 569 c 2
EndSplineSet
EndChar

StartChar: uniFEE3
Encoding: 65251 65251 238
GlifName: uniF_E_E_3
Width: 1000
VWidth: 2551
GlyphClass: 2
Flags: HW
AnchorPoint: "Anchor-10" 546 1098 basechar 0
AnchorPoint: "Anchor-7" 528 -226 basechar 0
LayerCount: 2
Fore
SplineSet
-5 220 m 2
 95 220 l 2
 185 220 206.557336587 242.800213708 211.041992188 281.301757812 c 4
 214.005859375 306.747070312 214 354.940429688 214 395 c 0
 214 664.491210938 341.450195312 801 563 801 c 0
 800.283203125 801 920 665.2421875 920 393 c 0
 920 134.58984375 794.861328125 -14 563 -14 c 0
 449 -14 376.799804688 15.9794921875 312.872070312 74.45703125 c 1
 260.353515625 22.1806640625 190 0 97 0 c 2
 -5 0 l 2
 -26 0 -30 56.28515625 -30 106 c 2
 -30 117 l 2
 -30 165.1328125 -26 220 -5 220 c 2
565 200 m 0
 658.247070312 200 709 258.294921875 709 397 c 0
 709 529.11328125 662.1796875 583 564 583 c 0
 467.96484375 583 421 529.227539062 421 397 c 0
 421 258.294921875 471.75390625 200 565 200 c 0
EndSplineSet
EndChar

StartChar: uniFEE4
Encoding: 65252 65252 239
GlifName: uniF_E_E_4
Width: 1061
VWidth: 2551
GlyphClass: 2
Flags: HW
AnchorPoint: "Anchor-7" 528 -226 basechar 0
AnchorPoint: "Anchor-10" 546 1106 basechar 0
LayerCount: 2
Fore
SplineSet
1066 0 m 6
 1034 0 l 2
 953 0 868.198242188 25.5595703125 815.08203125 75.8232421875 c 1
 753.427734375 15.33203125 666.942382812 -14 563 -14 c 0
 449 -14 376.799804688 15.9794921875 312.872070312 74.45703125 c 1
 260.353515625 22.1806640625 190 0 97 0 c 2
 -5 0 l 2
 -26 0 -30 56.28515625 -30 106 c 2
 -30 117 l 2
 -30 165.1328125 -26 220 -5 220 c 2
 95 220 l 2
 185 220 206.51765401 242.637789741 211.047851562 281.389648438 c 0
 213.998046875 306.625976562 214 355.004882812 214 395 c 0
 214 664.491210938 341.450195312 801 563 801 c 0
 800.283203125 801 920 665.2421875 920 393 c 0
 920 346.466796875 908.987304688 283.6015625 908.987304688 270.728515625 c 0
 908.987304688 241.96875 945 220 1032 220 c 2
 1066 220 l 6
 1087 220 1091 165.04296875 1091 117 c 6
 1091 106 l 6
 1091 56.2763671875 1087 0 1066 0 c 6
565 200 m 0
 658.247070312 200 709 258.294921875 709 397 c 0
 709 529.11328125 662.1796875 583 564 583 c 0
 467.96484375 583 421 529.227539062 421 397 c 0
 421 258.294921875 471.75390625 200 565 200 c 0
EndSplineSet
EndChar

StartChar: uniFEEA
Encoding: 65258 65258 245
GlifName: uniF_E_E_A_
Width: 1060
VWidth: 2571
GlyphClass: 2
Flags: HW
AnchorPoint: "Anchor-10" 651 1180 basechar 0
AnchorPoint: "Anchor-7" 595 -202 basechar 0
LayerCount: 2
Fore
SplineSet
1020 0 m 6
 863 0 738.232421875 61.8203125 679.041015625 187 c 1
 513 187 l 2
 207.987304688 187 80 313.577148438 80 477 c 0
 80 679.327148438 239.579101562 795.822265625 540.611328125 851.352539062 c 1
 586.861328125 858.723632812 l 1
 581.140625 906.62890625 l 1
 578.858398438 925.745117188 l 1
 597.874023438 928.75390625 l 1
 755.874023438 953.75390625 l 1
 776.41015625 957.00390625 l 1
 778.860351562 936.357421875 l 1
 846.793945312 363.915039062 l 1
 867.424804688 248.627929688 923 220 1031 220 c 6
 1066 220 l 6
 1087 220 1091 165.04296875 1091 117 c 6
 1091 106 l 6
 1091 56.2763671875 1087 0 1066 0 c 6
 1020 0 l 6
641.403320312 400 m 1
 611.63671875 643.231445312 l 1
 573.91015625 637.684570312 l 2
 394.328125 611.276367188 284 556.68359375 284 490 c 0
 284 429.895507812 344.145507812 400 498 400 c 2
 641.403320312 400 l 1
EndSplineSet
EndChar

StartChar: uniFEEB
Encoding: 65259 65259 246
GlifName: uniF_E_E_B_
Width: 1309
VWidth: 2551
GlyphClass: 2
Flags: HW
AnchorPoint: "Anchor-10" 640 1212 basechar 0
AnchorPoint: "Anchor-7" 559 -261 basechar 0
LayerCount: 2
Fore
SplineSet
-5 220 m 6
 239.637695312 220 l 1
 179.697265625 284.586914062 156 361.454101562 156 451 c 0
 156 672.279296875 314.348632812 831 510 831 c 0
 569.04296875 831 614.029296875 820.712890625 657.124023438 801.41015625 c 1
 735.478515625 916.270507812 l 1
 747.6796875 934.15625 l 1
 764.54296875 920.578125 l 2
 1073.1640625 672.078125 1229 463.4296875 1229 280 c 0
 1229 89.8701171875 1096.42480469 -56 916 -56 c 0
 771.455078125 -56 631.7109375 -19.6630859375 469.29296875 53.802734375 c 1
 339.30078125 18.603515625 218 0 90 0 c 2
 -5 0 l 6
 -26 0 -30 56.28515625 -30 106 c 6
 -30 117 l 6
 -30 165.1328125 -26 220 -5 220 c 6
479.393554688 273.322265625 m 1
 580.795898438 315.34375 662.830078125 395.720703125 662.830078125 485.6171875 c 0
 662.830078125 562.401367188 610.770507812 631 532 631 c 0
 427.088867188 631 358 557.956054688 358 449 c 0
 358 380.619140625 399.896484375 302.229492188 479.393554688 273.322265625 c 1
841.874023438 566.528320312 m 1
 850.784179688 532.888671875 854.501953125 503.719726562 854.501953125 475.202148438 c 0
 854.501953125 338.415039062 759.154296875 238.705078125 692.120117188 185.81640625 c 1
 776.356445312 160.506835938 851.428710938 154 901 154 c 0
 973.344726562 154 1024 225.295898438 1024 279 c 0
 1024 346.05859375 967.874023438 438.807617188 841.874023438 566.528320312 c 1
EndSplineSet
EndChar

StartChar: uniFEEC
Encoding: 65260 65260 247
GlifName: uniF_E_E_C_
Width: 991
VWidth: 2551
GlyphClass: 2
Flags: HW
AnchorPoint: "Anchor-7" 576 -617 basechar 0
AnchorPoint: "Anchor-10" 558 1098 basechar 0
LayerCount: 2
Fore
SplineSet
997 0 m 6
 812.616210938 0 l 1
 848.697265625 -61.68359375 867 -126.661132812 867 -194 c 0
 867 -353.873046875 764.87109375 -487 594 -487 c 0
 331.970703125 -487 207.524414062 -195.129882812 199.41015625 -0 c 1
 -5 0 l 2
 -26 0 -30 56.28515625 -30 106 c 2
 -30 117 l 2
 -30 165.1328125 -26 220 -5 220 c 2
 200.364257812 220 l 1
 224.123046875 505.481445312 302.0390625 812 574 812 c 0
 782.499023438 812 869 613.955078125 869 453 c 0
 869 375.336914062 848.373046875 287.107421875 813.048828125 220 c 1
 997 220 l 6
 1018 220 1022 165.04296875 1022 117 c 6
 1022 106 l 6
 1022 56.2763671875 1018 0 997 0 c 6
673 -175 m 0
 673 -52.2431640625 610.640625 0 482 0 c 2
 397.622070312 0 l 1
 405.55859375 -127.103515625 481.021484375 -279 590 -279 c 0
 645.6640625 -279 673 -244.830078125 673 -175 c 0
672 427 m 0
 672 526.708984375 632.706054688 601 566 601 c 0
 467.737304688 601 419.1953125 392.354492188 399.161132812 220.169921875 c 1
 497.845703125 220.999023438 l 2
 616.1640625 221.909179688 672 285.045898438 672 427 c 0
EndSplineSet
EndChar

StartChar: uniFEEE
Encoding: 65262 65262 249
GlifName: uniF_E_E_E_
Width: 916
VWidth: 2551
GlyphClass: 2
Flags: HW
AnchorPoint: "Anchor-7" 394 -599 basechar 0
AnchorPoint: "Anchor-10" 444 1074 basechar 0
LayerCount: 2
Fore
SplineSet
921 0 m 6
 799.686523438 0 l 1
 790.299804688 -289.53515625 580.068359375 -467 202 -467 c 2
 128 -467 l 1
 108 -467 l 1
 108 -447 l 1
 108 -271 l 1
 108 -251 l 1
 128 -251 l 1
 196 -251 l 2
 452.25 -251 579.4921875 -159.712890625 589.4140625 -0 c 1
 448 0 l 2
 206.990234375 0 79.9931640625 123.213867188 79.9931640625 359.083007812 c 0
 79.9931640625 588.26953125 202.486328125 765 447 765 c 0
 671.13671875 765 800 607.754882812 800 368 c 2
 800 220 l 1
 921 220 l 6
 942 220 946 165.04296875 946 117 c 6
 946 106 l 6
 946 56.2763671875 942 0 921 0 c 6
287 363 m 0
 287 265.93359375 334.942382812 220 447 220 c 2
 591 220 l 1
 591 369 l 2
 591 498.561523438 532.853515625 553 443 553 c 0
 339.065429688 553 287 486.565429688 287 363 c 0
EndSplineSet
EndChar

StartChar: uniFEFB
Encoding: 65275 65275 262
GlifName: uniF_E_F_B_
Width: 1145
VWidth: 2551
GlyphClass: 3
Flags: HW
AnchorPoint: "Anchor-9" 248 1443 baselig 1
AnchorPoint: "Anchor-9" 910 1463 baselig 0
AnchorPoint: "Anchor-6" 848 -188 baselig 0
AnchorPoint: "Anchor-6" 243 -195 baselig 1
LayerCount: 2
Fore
SplineSet
159 1285 m 1
 325 1285 l 1
 345 1285 l 1
 345 1265 l 1
 345 321 l 5
 345 301 l 5
 325 301 l 5
 159 301 l 5
 139 301 l 5
 139 321 l 5
 139 1265 l 1
 139 1285 l 1
 159 1285 l 1
1022 412 m 2
 1022 142 883.8203125 0 620 0 c 2
 158 0 l 1
 138 0 l 1
 138 20 l 1
 138 200 l 1
 138 220 l 1
 158 220 l 1
 627 220 l 2
 754.013671875 220 815 285 815 430 c 2
 815 1314 l 1
 815 1334 l 1
 835 1334 l 1
 1002 1334 l 1
 1022 1334 l 1
 1022 1314 l 1
 1022 412 l 2
EndSplineSet
PairPos2: "'kern' Horizontal Kerning lookup 15-6" uni063A dx=-60 dy=0 dh=-60 dv=0 dx=0 dy=0 dh=0 dv=0
PairPos2: "'kern' Horizontal Kerning lookup 15-6" uni0639 dx=-60 dy=0 dh=-60 dv=0 dx=0 dy=0 dh=0 dv=0
LCarets2: 1 0
Ligature2: "'rlig' Required Ligatures in Arabic lookup 16 subtable" uniFEDF uniFE8E
EndChar

StartChar: uniFEFC
Encoding: 65276 65276 263
GlifName: uniF_E_F_C_
Width: 1203
VWidth: 2551
GlyphClass: 3
Flags: HW
AnchorPoint: "Anchor-6" 848 -188 baselig 0
AnchorPoint: "Anchor-9" 910 1463 baselig 0
AnchorPoint: "Anchor-6" 243 -195 baselig 1
AnchorPoint: "Anchor-9" 248 1443 baselig 1
LayerCount: 2
Fore
SplineSet
1208 0 m 6
 1183 0 l 2
 1055 0 984.700195312 46.2626953125 915.4140625 130.0546875 c 1
 841.16796875 43.5517578125 747.533203125 0 637 0 c 2
 158 0 l 1
 138 0 l 1
 138 20 l 1
 138 200 l 1
 138 220 l 1
 158 220 l 1
 620 220 l 2
 749.361328125 220 815 299 815 484 c 2
 815 1315 l 1
 815 1335 l 1
 835 1335 l 1
 1001 1335 l 1
 1021 1335 l 1
 1021 1315 l 1
 1021 483 l 2
 1021 295 1052 220 1185 220 c 2
 1208 220 l 6
 1229 220 1233 165.04296875 1233 117 c 6
 1233 106 l 6
 1233 56.2763671875 1229 0 1208 0 c 6
159 1285 m 1
 325 1285 l 1
 345 1285 l 1
 345 1265 l 1
 345 321 l 1
 345 301 l 1
 325 301 l 1
 159 301 l 1
 139 301 l 1
 139 321 l 1
 139 1265 l 1
 139 1285 l 1
 159 1285 l 1
EndSplineSet
PairPos2: "'kern' Horizontal Kerning lookup 15-6" uni063A dx=-60 dy=0 dh=-60 dv=0 dx=0 dy=0 dh=0 dv=0
PairPos2: "'kern' Horizontal Kerning lookup 15-6" uni0639 dx=-60 dy=0 dh=-60 dv=0 dx=0 dy=0 dh=0 dv=0
LCarets2: 1 0
Ligature2: "'rlig' Required Ligatures in Arabic lookup 16 subtable" uniFEE0 uniFE8E
EndChar

StartChar: arabic_dot
Encoding: 65536 -1 264
GlifName: arabic_dot
Width: 204
VWidth: 2629
GlyphClass: 2
Flags: HW
LayerCount: 2
Fore
SplineSet
-54.8994949366 89 m 1
 102 245.899494937 l 1
 258.899494937 89 l 1
 102 -67.8994949366 l 1
 -54.8994949366 89 l 1
EndSplineSet
EndChar

StartChar: arabic_2dots
Encoding: 65537 -1 265
GlifName: arabic_2dots
Width: 527
VWidth: 2629
GlyphClass: 2
Flags: HW
LayerCount: 2
Fore
SplineSet
291.134765625 89 m 1
 443.982421875 242.916992188 l 5
 597.899414062 89 l 5
 443.982421875 -64.9169921875 l 5
 291.134765625 89 l 1
-70.8994140625 89 m 5
 83.017578125 242.916992188 l 5
 235.865234375 89 l 1
 83.017578125 -64.9169921875 l 5
 -70.8994140625 89 l 5
EndSplineSet
EndChar

StartChar: arabic_3dots
Encoding: 65538 -1 266
GlifName: arabic_3dots
Width: 527
VWidth: 2629
GlyphClass: 2
Flags: HW
LayerCount: 2
Fore
SplineSet
118.832464616 344.55807951 m 1
 264.008209309 488.68132469 l 1
 408.131520002 344.558013996 l 1
 264.008274823 199.382269304 l 1
 118.832464616 344.55807951 l 1
295.33203125 98.4423828125 m 1
 440.490234375 243.599609375 l 1
 585.6484375 98.4423828125 l 1
 440.490234375 -45.6630859375 l 1
 295.33203125 98.4423828125 l 1
-58.6484375 98.4423828125 m 5
 86.509765625 243.599609375 l 5
 231.66796875 98.4423828125 l 5
 86.509765625 -45.6630859375 l 5
 -58.6484375 98.4423828125 l 5
EndSplineSet
EndChar

StartChar: arabic_3dots_a
Encoding: 65539 -1 267
GlifName: arabic_3dots_a
Width: 527
VWidth: 2629
GlyphClass: 2
Flags: HW
LayerCount: 2
Fore
SplineSet
118.832464616 -141.55807951 m 1
 264.008274823 3.61773069686 l 1
 408.131520002 -141.558013996 l 1
 264.008209309 -285.68132469 l 1
 118.832464616 -141.55807951 l 1
295.33203125 104.557617188 m 1
 440.490234375 248.663085938 l 1
 585.6484375 104.557617188 l 1
 440.490234375 -40.599609375 l 1
 295.33203125 104.557617188 l 1
-58.6484375 104.557617188 m 1
 86.509765625 248.663085938 l 1
 231.66796875 104.557617188 l 1
 86.509765625 -40.599609375 l 1
 -58.6484375 104.557617188 l 1
EndSplineSet
EndChar

StartChar: uni066E.fina
Encoding: 65540 -1 268
GlifName: uni066E_.fina
Width: 2016
VWidth: 2551
GlyphClass: 2
Flags: HW
AnchorPoint: "Anchor-10" 680 1257 basechar 0
AnchorPoint: "Anchor-7" 680 -198 basechar 0
LayerCount: 2
Fore
SplineSet
2022 0 m 2
 2001 0 l 2
 1861 0 1773.625 40.2822265625 1712.06152344 122.155273438 c 1
 1643.0546875 39.7294921875 1546.97949219 0 1357 0 c 2
 532 0 l 2
 234.249023438 0 80 157.942382812 80 462 c 2
 80 663 l 1
 80 683 l 1
 100 683 l 1
 275 683 l 1
 295 683 l 1
 295 663 l 1
 295 463 l 2
 295 297.25 371.607421875 220 535 220 c 2
 1359 220 l 2
 1539.01464844 220 1602 266.48046875 1602 395 c 2
 1602 653 l 1
 1602 673 l 1
 1622 673 l 1
 1793 673 l 1
 1813 673 l 1
 1813 653 l 1
 1813 395 l 2
 1813 274 1857 220 2000 220 c 2
 2022 220 l 2
 2043 220 2047 165.04296875 2047 117 c 2
 2047 106 l 2
 2047 56.2763671875 2043 0 2022 0 c 2
EndSplineSet
EndChar

StartChar: uni06A1.fina
Encoding: 65543 -1 269
GlifName: uni06A_1.fina
Width: 2044
VWidth: 2551
GlyphClass: 2
Flags: HW
AnchorPoint: "Anchor-10" 475 1383 basechar 0
AnchorPoint: "Anchor-7" 600 -250 basechar 0
LayerCount: 2
Fore
SplineSet
2050 0 m 6
 1914 0 l 2
 1803 0 1668.04785156 22.2275390625 1557.97070312 78.4306640625 c 1
 1449.54101562 23.099609375 1330.09082031 0 1201 0 c 2
 534 0 l 2
 236.249023438 0 82 157.942382812 82 462 c 2
 82 663 l 1
 82 683 l 1
 102 683 l 1
 277 683 l 1
 297 683 l 1
 297 663 l 1
 297 463 l 2
 297 297.28515625 373.553710938 220 538 220 c 2
 1269.12402344 220 l 1
 1220.75390625 279.7578125 1188 354.166015625 1188 451 c 0
 1188 661.510742188 1352.46777344 826 1561 826 c 0
 1768.13574219 826 1933 664.74609375 1933 452 c 0
 1933 354.6015625 1899.88867188 278.737304688 1852.80761719 220 c 1
 2050 220 l 6
 2071 220 2075 165.04296875 2075 117 c 6
 2075 106 l 6
 2075 56.2763671875 2071 0 2050 0 c 6
1725 450 m 0
 1725 538.426757812 1655.8828125 611 1560 611 c 0
 1463.64355469 611 1394 544.357421875 1394 450 c 0
 1394 361.919921875 1470.26757812 289 1560 289 c 0
 1649.43945312 289 1725 361.279296875 1725 450 c 0
EndSplineSet
EndChar

StartChar: uni06A1.init
Encoding: 65544 -1 270
GlifName: uni06A_1.init
Width: 898
VWidth: 2551
GlyphClass: 2
Flags: HW
AnchorPoint: "Anchor-10" 467 1410 basechar 0
AnchorPoint: "Anchor-7" 502 -187 basechar 0
LayerCount: 2
Fore
SplineSet
-6 220 m 6
 365 220 l 2
 583 220 615 263.96875 615 348 c 2
 615 351.107421875 l 1
 568.341796875 347 525.072265625 344 482 344 c 0
 239.813476562 344 106 434.875 106 646 c 0
 106 860.134765625 235.232421875 1020 466 1020 c 0
 697.20703125 1020 818 881.459960938 818 674 c 2
 818 355 l 2
 818 118.512695312 679 0 363 0 c 2
 -6 0 l 6
 -27 0 -31 56.28515625 -31 106 c 6
 -31 117 l 6
 -31 165.1328125 -27 220 -6 220 c 6
468 809 m 0
 362.736328125 809 311 756.313476562 311 657 c 0
 311 574.294921875 356.010742188 558 490 558 c 0
 532.333007812 558 575.440429688 561.291015625 615 565.940429688 c 1
 615 677 l 2
 615 758.317382812 569.971679688 809 468 809 c 0
EndSplineSet
EndChar

StartChar: uni06A1.medi
Encoding: 65545 -1 271
GlifName: uni06A_1.medi
Width: 1022
VWidth: 2551
GlyphClass: 2
Flags: HW
AnchorPoint: "Anchor-10" 535 1194 basechar 0
AnchorPoint: "Anchor-7" 505 -187 basechar 0
LayerCount: 2
Fore
SplineSet
1027 0 m 6
 891 0 l 2
 780 0 645.047851562 22.2275390625 534.970703125 78.4306640625 c 1
 426.50390625 23.091796875 307 0 178 0 c 2
 -5 0 l 2
 -26 0 -30 56.28515625 -30 106 c 2
 -30 117 l 2
 -30 165.1328125 -26 220 -5 220 c 2
 246.124023438 220 l 1
 197.75390625 279.756835938 165 354.166015625 165 451 c 0
 165 661.510742188 329.466796875 826 538 826 c 0
 745.135742188 826 910 664.74609375 910 452 c 0
 910 354.6015625 876.888671875 278.73828125 829.807617188 220 c 1
 1027 220 l 6
 1048 220 1052 165.04296875 1052 117 c 6
 1052 106 l 6
 1052 56.2763671875 1048 0 1027 0 c 6
702 450 m 0
 702 538.42578125 632.8828125 611 537 611 c 0
 440.642578125 611 371 544.357421875 371 450 c 0
 371 361.919921875 447.267578125 289 537 289 c 0
 626.439453125 289 702 361.279296875 702 450 c 0
EndSplineSet
EndChar

StartChar: uni066F.fina
Encoding: 65546 -1 272
GlifName: uni066F_.fina
Width: 1466
VWidth: 2551
GlyphClass: 2
Flags: HW
AnchorPoint: "Anchor-10" 398 1070 basechar 0
AnchorPoint: "Anchor-7" 515 -680 basechar 0
LayerCount: 2
Fore
SplineSet
1472 0 m 6
 1351 0 l 1
 1351 -46 l 2
 1351 -355.73046875 1060.50683594 -449 744 -449 c 2
 693 -449 l 2
 290.815429688 -449 80 -257.631835938 80 121 c 2
 80 462 l 1
 80 482 l 1
 100 482 l 1
 274 482 l 1
 294 482 l 1
 294 462 l 1
 294 122 l 2
 294 -114.682617188 422.544921875 -230 693 -230 c 2
 744 -230 l 2
 998.974609375 -230 1140.98632812 -165.184570312 1141.00097656 -46 c 2
 1141 -0 l 1
 999 0 l 2
 757.990234375 0 630.993164062 123.213867188 630.993164062 359.083007812 c 0
 630.993164062 588.26953125 753.486328125 765 998 765 c 0
 1222.13671875 765 1351 607.754882812 1351 368 c 2
 1351 220 l 1
 1472 220 l 6
 1493 220 1497 165.04296875 1497 117 c 6
 1497 106 l 6
 1497 56.2763671875 1493 0 1472 0 c 6
838 363 m 0
 838 265.93359375 885.942382812 220 998 220 c 2
 1142 220 l 1
 1142 369 l 2
 1142 498.561523438 1083.85351562 553 994 553 c 0
 890.065429688 553 838 486.565429688 838 363 c 0
EndSplineSet
EndChar

StartChar: arabic_gaf_bar
Encoding: 65550 -1 273
GlifName: arabic_gaf_bar
Width: 657
VWidth: 2389
GlyphClass: 2
Flags: HW
LayerCount: 2
Fore
SplineSet
605 1788 m 1
 17 1591 l 1
 17 1711 l 5
 605 1908 l 5
 605 1788 l 1
EndSplineSet
EndChar

StartChar: guillemotleft
Encoding: 171 171 283
GlifName: guillemotleft
Width: 957
VWidth: 2046
Flags: HW
LayerCount: 2
Fore
SplineSet
468.30859375 916.979492188 m 2
 385.15234375 773.344726562 300 629.508789062 300 477 c 0
 300 322.418945312 385.05859375 178.815429688 468.30859375 35.0205078125 c 2
 485.689453125 5 l 1
 451 5 l 1
 299 5 l 1
 288.295898438 5 l 1
 282.359375 13.90625 l 2
 180.416015625 166.8203125 100 317.263671875 100 477 c 0
 100 677.204101562 199.872070312 804.783203125 280.934570312 937.428710938 c 2
 286.783203125 947 l 1
 298 947 l 1
 451 947 l 1
 485.688476562 947 l 1
 468.30859375 916.979492188 l 2
844.30859375 916.979492188 m 2
 766.68359375 782.8984375 676 664.083007812 676 477 c 0
 676 322.418945312 761.05859375 178.815429688 844.30859375 35.0205078125 c 2
 861.689453125 5 l 1
 827 5 l 1
 675 5 l 1
 664.295898438 5 l 1
 658.359375 13.90625 l 2
 574.407226562 139.833007812 476 270.783203125 476 477 c 0
 476 677.204101562 575.872070312 804.783203125 656.934570312 937.428710938 c 2
 662.783203125 947 l 1
 674 947 l 1
 827 947 l 1
 861.688476562 947 l 1
 844.30859375 916.979492188 l 2
EndSplineSet
EndChar

StartChar: guillemotright
Encoding: 187 187 284
GlifName: guillemotright
Width: 957
VWidth: 2046
Flags: HW
LayerCount: 2
Fore
SplineSet
506 947 m 1
 659 947 l 1
 670.216796875 947 l 1
 676.065429688 937.428710938 l 2
 772.641601562 779.396484375 857 638.84375 857 476 c 0
 857 317.16015625 776.629882812 166.889648438 674.640625 13.90625 c 2
 668.704101562 5 l 1
 658 5 l 1
 506 5 l 1
 471.311523438 5 l 1
 488.69140625 35.0205078125 l 2
 571.798828125 178.5703125 657 321.728515625 657 476 c 0
 657 629.880859375 572.112304688 772.888671875 488.69140625 916.979492188 c 2
 471.311523438 947 l 1
 506 947 l 1
130 947 m 1
 283 947 l 1
 294.216796875 947 l 1
 300.065429688 937.428710938 l 2
 396.641601562 779.396484375 481 638.84375 481 476 c 0
 481 317.16015625 400.629882812 166.889648438 298.640625 13.90625 c 2
 292.704101562 5 l 1
 282 5 l 1
 130 5 l 1
 95.3115234375 5 l 1
 112.69140625 35.0205078125 l 2
 195.798828125 178.5703125 281 321.728515625 281 476 c 0
 281 629.880859375 196.112304688 772.888671875 112.69140625 916.979492188 c 2
 95.3115234375 947 l 1
 130 947 l 1
EndSplineSet
EndChar

StartChar: NameMe.302
Encoding: 65562 -1 293
GlifName: N_ameM_e.302
Width: 599
VWidth: 2551
Flags: HW
AnchorPoint: "Anchor-10" 313 1253 basechar 0
AnchorPoint: "Anchor-7" 231 -275 basechar 0
LayerCount: 2
Fore
SplineSet
605 0 m 6
 569 0 l 2
 458 0 386.951171875 46.2890625 311.958007812 129.864257812 c 1
 237.875976562 43.9775390625 144 0 30 0 c 2
 -5 0 l 2
 -26 0 -30 56.28515625 -30 106 c 2
 -30 117 l 2
 -30 165.1328125 -26 220 -5 220 c 2
 28 220 l 2
 150 220 211 291 211 457 c 2
 211 1104 l 1
 211 1124 l 1
 231 1124 l 1
 397 1124 l 1
 417 1124 l 1
 417 1104 l 1
 417 456 l 2
 417 318 463 220 579 220 c 2
 605 220 l 6
 626 220 630 165.04296875 630 117 c 6
 630 106 l 6
 630 56.2763671875 626 0 605 0 c 6
EndSplineSet
EndChar

StartChar: NameMe.303
Encoding: 65563 -1 294
GlifName: N_ameM_e.303
Width: 570
VWidth: 2551
Flags: HW
LayerCount: 2
Fore
SplineSet
-5 220 m 6
 67 220 l 2
 187 220 241 274 241 391 c 2
 241 1294 l 1
 241 1314 l 1
 261 1314 l 1
 428 1314 l 1
 448 1314 l 1
 448 1294 l 1
 448 387 l 2
 448 133 317 0 66 0 c 2
 -5 0 l 6
 -26 0 -30 56.28515625 -30 106 c 6
 -30 117 l 6
 -30 165.1328125 -26 220 -5 220 c 6
EndSplineSet
EndChar

StartChar: NameMe.65564
Encoding: 65564 -1 297
GlifName: N_ameM_e.65564
Width: 516
VWidth: 2551
Flags: HW
AnchorPoint: "Anchor-10" 247 1291 basechar 0
AnchorPoint: "Anchor-7" 273 -227 basechar 0
LayerCount: 2
Fore
SplineSet
522 0 m 6
 477 0 l 2
 247 0 131 138 131 395 c 2
 131 1113 l 1
 131 1133 l 1
 151 1133 l 1
 320 1133 l 1
 340 1133 l 1
 340 1113 l 1
 340 394 l 2
 340 271 385 220 480 220 c 2
 522 220 l 6
 543 220 547 165.04296875 547 117 c 6
 547 106 l 6
 547 56.2763671875 543 0 522 0 c 6
EndSplineSet
EndChar

StartChar: NameMe.65565
Encoding: 65565 -1 298
GlifName: N_ameM_e.65565
Width: 867
VWidth: 1530
Flags: HW
LayerCount: 2
Fore
SplineSet
284.999256366 -132.003084706 m 1
 309.512942829 -143.466669481 345.036493926 -148 395 -148 c 2
 447 -148 l 2
 591.010067574 -148 662 -118.070247549 662 -60 c 2
 662 -54 l 2
 662 -27.3904077882 641.935290022 -13 604 -13 c 2
 512 -13 l 2
 444.121731279 -13 410 20.110918106 410 86 c 2
 410 124 l 2
 410 211.953049984 455.046061698 272.01622628 543 303 c 0
 574.00480058 314.001703432 611.994853909 320 655 320 c 2
 770 320 l 1
 771 204 l 1
 766 204 l 1
 631 204 l 2
 558.061581408 204 519.996674926 177.830421214 519 127 c 2
 519 107 l 1
 519 97 l 1
 529 97 l 1
 605 97 l 2
 715.940371671 97 771 52.9012384299 771 -34 c 2
 771 -50 l 2
 771 -189.954269369 660.982356835 -261 442 -261 c 2
 394 -261 l 2
 335.9902017 -261 291.009849713 -255.003283238 258 -244 c 1
 284.999256366 -132.003084706 l 1
EndSplineSet
EndChar

StartChar: uni060D
Encoding: 1549 1549 299
Width: 828
VWidth: 4036
Flags: HW
LayerCount: 2
Fore
SplineSet
575.666992188 1439.92675781 m 1
 757 1385.40039062 l 1
 210.6875 -215.69921875 l 1
 29.3544921875 -161.172851562 l 5
 575.666992188 1439.92675781 l 1
EndSplineSet
EndChar

StartChar: NameMe.65541
Encoding: 65541 -1 300
Width: 677
VWidth: 2551
Flags: HW
AnchorPoint: "Anchor-10" 400 1238 basechar 0
AnchorPoint: "Anchor-7" 407 -124 basechar 0
LayerCount: 2
Fore
SplineSet
-5 220 m 6
 198 220 l 2
 326 220 380 255.522460938 380 393 c 2
 380 687 l 1
 380 707 l 1
 400 707 l 1
 574 707 l 1
 594 707 l 1
 594 687 l 1
 594 392 l 2
 594 134.416015625 458 0 197 0 c 2
 -5 0 l 6
 -26 0 -30 56.28515625 -30 106 c 6
 -30 117 l 6
 -30 165.1328125 -26 220 -5 220 c 6
EndSplineSet
EndChar

StartChar: NameMe.65542
Encoding: 65542 -1 301
Width: 807
VWidth: 2551
Flags: HW
AnchorPoint: "Anchor-10" 360 1144 basechar 0
AnchorPoint: "Anchor-7" 339 -129 basechar 0
LayerCount: 2
Fore
SplineSet
812 0 m 6
 791 0 l 2
 652 0 564.45703125 41.0927734375 501.78515625 123.118164062 c 1
 428.064453125 39.9765625 325 0 166 0 c 2
 -5 0 l 2
 -26 0 -30 56.28515625 -30 106 c 2
 -30 117 l 2
 -30 165.1328125 -26 220 -5 220 c 2
 171 220 l 2
 335 220 392 276.892578125 392 395 c 2
 392 653 l 1
 392 673 l 1
 412 673 l 1
 583 673 l 1
 603 673 l 1
 603 653 l 1
 603 395 l 2
 603 274 647 220 790 220 c 2
 812 220 l 6
 833 220 837 165.04296875 837 117 c 6
 837 106 l 6
 837 56.2763671875 833 0 812 0 c 6
EndSplineSet
EndChar

StartChar: uniFBFD.compact
Encoding: 65575 -1 321
Width: 1381
VWidth: 2551
Flags: HW
AnchorPoint: "Anchor-7" 721.902 -630.086 basechar 0
AnchorPoint: "Anchor-10" 681.6 673.22 basechar 0
LayerCount: 2
Fore
SplineSet
1386 0 m 2
 1352 0 l 1
 1352 -59 l 2
 1352 -312.360351562 1151.82617188 -451 783 -451 c 2
 687 -451 l 2
 285.565429688 -451 80 -257.361328125 80 119 c 2
 80 460 l 1
 80 480.114257812 l 1
 100.114257812 480 l 1
 275.114257812 479 l 1
 295 478.885742188 l 1
 295 459 l 1
 295 120 l 2
 295 -115.983398438 419.803710938 -231 687 -231 c 2
 783 -231 l 2
 970.004882812 -231 1139 -198.946289062 1139 -52 c 2
 1139 0 l 1
 906 0 l 2
 858.317382812 0 827.808031352 41.9154416843 812.689453125 102.794921875 c 0
 796 170 783 220 837 220 c 2
 1386 220 l 2
 1407 220 1411 165.04296875 1411 117 c 2
 1411 106 l 2
 1411 56.2763671875 1407 0 1386 0 c 2
EndSplineSet
EndChar

StartChar: uniFECC.compact
Encoding: 65579 -1 324
Width: 1113
VWidth: 2950
Flags: HW
AnchorPoint: "Anchor-7" 585 -217 basechar 0
AnchorPoint: "Anchor-10" 608 1121 basechar 0
LayerCount: 2
Fore
SplineSet
1119 0 m 6
 1009 0 l 2
 909 0 766.841796875 15.513671875 616.848632812 98.158203125 c 1
 457.932617188 13.2529296875 325 0 146 0 c 2
 -5 0 l 2
 -26 0 -30 56.28515625 -30 106 c 2
 -30 117 l 2
 -30 165.1328125 -26 220 -5 220 c 2
 145 220 l 2
 259 220 332.291992188 222.201171875 415.966796875 232.276367188 c 1
 328.830078125 288.03515625 133.9921875 415.888671875 133.9921875 523.420898438 c 0
 133.9921875 725.3828125 357.807617188 792 619 792 c 0
 880.237304688 792 1103.0078125 725.338867188 1103.0078125 523.420898438 c 0
 1103.0078125 414.973632812 904.173828125 284.942382812 819.786132812 230.931640625 c 1
 882.154296875 222.278320312 941 220 1015 220 c 2
 1119 220 l 6
 1140 220 1144 165.04296875 1144 117 c 6
 1144 106 l 6
 1144 56.2763671875 1140 0 1119 0 c 6
618 340.059570312 m 1
 666.708984375 368.19140625 865.11328125 490.383789062 882.926757812 523.419921875 c 1
 879.638671875 545.185546875 781.353515625 582 617 582 c 0
 454.731445312 582 356.349609375 544.735351562 353.075195312 523.416015625 c 1
 371.544921875 489.1640625 571.625 366.84375 618 340.059570312 c 1
EndSplineSet
EndChar

